                                                                        S      1
,,,21HDiffuser_Bottom_Cover,22HAutodesk Inventor 2020,7Hunknown,32,38,7,G      1
99,15,,1.,2,2HMM,1,0.08,15H20210701.155737,0.01,10000.,8HWorkshop,,11,0,G      2
15H20210425.122516;                                                     G      3
     186       1                                                00000000D      1
     186             -59       1       0                               0D      2
     514       2                                                00010000D      3
     514                       1       1                               0D      4
     510       3                                                00010000D      5
     510             -59       1       1                               0D      6
     510       4                                                00010000D      7
     510             -59       1       1                               0D      8
     510       5                                                00010000D      9
     510             -59       1       1                               0D     10
     510       6                                                00010000D     11
     510             -59       1       1                               0D     12
     510       7                                                00010000D     13
     510             -59       1       1                               0D     14
     508       8                                                00010000D     15
     508                       1       1                               0D     16
     508       9                                                00010000D     17
     508                       1       1                               0D     18
     508      10                                                00010000D     19
     508                       2       1                               0D     20
     508      12                                                00010000D     21
     508                       1       1                               0D     22
     508      13                                                00010000D     23
     508                       1       1                               0D     24
     508      14                                                00010000D     25
     508                       1       1                               0D     26
     126      15                                                00010000D     27
     126       0               9       0                               0D     28
     126      24                                                00010000D     29
     126       0               3       0                               0D     30
     126      27                                                00010000D     31
     126       0              10       0                               0D     32
     126      37                                                00010000D     33
     126       0               5       0                               0D     34
     126      42                                                00010000D     35
     126       0               7       0                               0D     36
     126      49                                                00010000D     37
     126       0               2       0                               0D     38
     126      51                                                00010000D     39
     126       0               7       0                               0D     40
     126      58                                                00010000D     41
     126       0               5       0                               0D     42
     128      63                                                00010000D     43
     128       0     -59      13       0                               0D     44
     128      76                                                00010000D     45
     128       0     -59       3       0                               0D     46
     128      79                                                00010000D     47
     128       0     -59      12       0                               0D     48
     128      91                                                00010000D     49
     128       0     -59       3       0                               0D     50
     128      94                                                00010000D     51
     128       0     -59       3       0                               0D     52
     502      97                                                00010000D     53
     502                       2       1                               0D     54
     504      99                                                00010001D     55
     504                       2       1                               0D     56
     406     101                                                00000000D     57
     406                       1      15                               0D     58
     314     102                                                00000200D     59
     314                       1       0                               0D     60
186,3,1,0,0,1,57;                                                      1P      1
514,5,5,1,7,1,9,1,11,1,13,1;                                           3P      2
510,43,1,1,15;                                                         5P      3
510,45,1,1,17;                                                         7P      4
510,47,1,1,19;                                                         9P      5
510,49,2,1,21,23;                                                     11P      6
510,51,1,1,25;                                                        13P      7
508,4,0,55,1,0,0,0,55,2,1,0,0,55,3,0,0,0,55,2,0,0;                    15P      8
508,1,0,55,1,1,0;                                                     17P      9
508,6,0,55,4,0,0,0,55,5,0,0,0,55,6,1,0,0,55,7,1,0,0,55,8,1,0,0,       19P     10
55,6,0,0;                                                             19P     11
508,2,0,55,4,1,0,0,55,5,1,0;                                          21P     12
508,1,0,55,3,1,0;                                                     23P     13
508,2,0,55,8,0,0,0,55,7,0,0;                                          25P     14
126,8,2,0,1,0,0,-3.14159265358979,-3.14159265358979,                  27P     15
-3.14159265358979,-1.5707963267949,-1.5707963267949,0.,0.,            27P     16
1.5707963267949,1.5707963267949,3.14159265358979,                     27P     17
3.14159265358979,3.14159265358979,1.,0.707106781186548,1.,            27P     18
0.707106781186548,1.,0.707106781186548,1.,0.707106781186548,1.,       27P     19
-42.,-5.14351655641888D-15,2.,-42.,-42.,2.,2.57175827820944D-15,      27P     20
-42.,2.,42.,-42.,2.,42.,0.,2.,42.,42.,2.,2.57175827820944D-15,        27P     21
42.,2.,-42.,42.,2.,-42.,5.14351655641888D-15,2.,                      27P     22
-3.14159265358979,3.14159265358979,0.,0.,0.;                          27P     23
126,1,1,0,0,1,0,0.0454545454545455,0.0454545454545455,                29P     24
0.409090909090909,0.409090909090909,1.,1.,-42.,0.,2.,-42.,0.,         29P     25
18.,0.0454545454545455,0.409090909090909,0.,0.,0.;                    29P     26
126,8,2,0,1,0,0,-3.14159265358979,-3.14159265358979,                  31P     27
-3.14159265358979,-1.5707963267949,-1.5707963267949,0.,0.,            31P     28
1.5707963267949,1.5707963267949,3.14159265358979,                     31P     29
3.14159265358979,3.14159265358979,1.,0.707106781186548,1.,            31P     30
0.707106781186548,1.,0.707106781186548,1.,0.707106781186548,1.,       31P     31
-42.,5.14351655641888D-15,18.,-42.,42.,18.,2.57175827820944D-15,      31P     32
42.,18.,42.,42.,18.,42.,0.,18.,42.,-42.,18.,                          31P     33
2.57175827820944D-15,-42.,18.,-42.,-42.,18.,-42.,                     31P     34
-5.14351655641888D-15,18.,-3.14159265358979,3.14159265358979,0.,      31P     35
0.,0.;                                                                31P     36
126,4,2,0,0,0,0,0.,0.,0.,1.5707963267949,1.5707963267949,             33P     37
3.14159265358979,3.14159265358979,3.14159265358979,1.,                33P     38
0.707106781186548,1.,0.707106781186548,1.,44.,0.,18.,44.,44.,         33P     39
18.,2.69422295812418D-15,44.,18.,-44.,44.,18.,-44.,                   33P     40
5.38844591624836D-15,18.,0.,3.14159265358979,0.,0.,0.;                33P     41
126,4,2,0,0,0,0,3.14159265358979,3.14159265358979,                    35P     42
3.14159265358979,4.71238898038469,4.71238898038469,                   35P     43
6.28318530717959,6.28318530717959,6.28318530717959,1.,                35P     44
0.707106781186548,1.,0.707106781186548,1.,-44.,                       35P     45
5.38844591624836D-15,18.,-44.,-44.,18.,-8.08266887437253D-15,         35P     46
-44.,18.,44.,-44.,18.,44.,-1.07768918324967D-14,18.,                  35P     47
3.14159265358979,6.28318530717959,0.,0.,0.;                           35P     48
126,1,1,0,0,1,0,-0.409090909090909,-0.409090909090909,0.,0.,1.,       37P     49
1.,-44.,0.,18.,-44.,0.,0.,-0.409090909090909,0.,0.,0.,0.;             37P     50
126,4,2,0,0,0,0,3.14159265358979,3.14159265358979,                    39P     51
3.14159265358979,4.71238898038469,4.71238898038469,                   39P     52
6.28318530717959,6.28318530717959,6.28318530717959,1.,                39P     53
0.707106781186548,1.,0.707106781186548,1.,-44.,                       39P     54
5.38844591624836D-15,0.,-44.,-44.,0.,-8.08266887437253D-15,-44.,      39P     55
0.,44.,-44.,0.,44.,-1.07768918324967D-14,0.,3.14159265358979,         39P     56
6.28318530717959,0.,0.,0.;                                            39P     57
126,4,2,0,0,0,0,0.,0.,0.,1.5707963267949,1.5707963267949,             41P     58
3.14159265358979,3.14159265358979,3.14159265358979,1.,                41P     59
0.707106781186548,1.,0.707106781186548,1.,44.,0.,0.,44.,44.,0.,       41P     60
2.69422295812418D-15,44.,0.,-44.,44.,0.,-44.,                         41P     61
5.38844591624836D-15,0.,0.,3.14159265358979,0.,0.,0.;                 41P     62
128,1,8,1,2,0,1,0,0,1,0.0454545454545455,0.0454545454545455,          43P     63
0.409090909090909,0.409090909090909,-3.14159265358979,                43P     64
-3.14159265358979,-3.14159265358979,-1.5707963267949,                 43P     65
-1.5707963267949,0.,0.,1.5707963267949,1.5707963267949,               43P     66
3.14159265358979,3.14159265358979,3.14159265358979,1.,1.,             43P     67
0.707106781186548,0.707106781186548,1.,1.,0.707106781186548,          43P     68
0.707106781186548,1.,1.,0.707106781186548,0.707106781186548,1.,       43P     69
1.,0.707106781186548,0.707106781186548,1.,1.,-42.,0.,2.,-42.,0.,      43P     70
18.,-42.,-42.,2.,-42.,-42.,18.,0.,-42.,2.,0.,-42.,18.,42.,-42.,       43P     71
2.,42.,-42.,18.,42.,0.,2.,42.,0.,18.,42.,42.,2.,42.,42.,18.,0.,       43P     72
42.,2.,0.,42.,18.,-42.,42.,2.,-42.,42.,18.,-42.,0.,2.,-42.,0.,        43P     73
18.,0.0454545454545455,0.409090909090909,-3.14159265358979,           43P     74
3.14159265358979;                                                     43P     75
128,1,1,1,1,0,0,1,0,0,-4.201,-4.201,4.201,4.201,-4.201,-4.201,        45P     76
4.201,4.201,1.,1.,1.,1.,-42.01,-42.01,2.,42.01,-42.01,2.,-42.01,      45P     77
42.01,2.,42.01,42.01,2.,-4.201,4.201,-4.201,4.201;                    45P     78
128,1,8,1,2,0,1,0,0,1,0.,0.,0.409090909090909,0.409090909090909,      47P     79
-3.14159265358979,-3.14159265358979,-3.14159265358979,                47P     80
-1.5707963267949,-1.5707963267949,0.,0.,1.5707963267949,              47P     81
1.5707963267949,3.14159265358979,3.14159265358979,                    47P     82
3.14159265358979,1.,1.,0.707106781186548,0.707106781186548,1.,        47P     83
1.,0.707106781186548,0.707106781186548,1.,1.,0.707106781186548,       47P     84
0.707106781186548,1.,1.,0.707106781186548,0.707106781186548,1.,       47P     85
1.,-44.,0.,18.,-44.,0.,0.,-44.,-44.,18.,-44.,-44.,0.,0.,-44.,         47P     86
18.,0.,-44.,0.,44.,-44.,18.,44.,-44.,0.,44.,0.,18.,44.,0.,0.,         47P     87
44.,44.,18.,44.,44.,0.,0.,44.,18.,0.,44.,0.,-44.,44.,18.,-44.,        47P     88
44.,0.,-44.,0.,18.,-44.,0.,0.,0.,0.409090909090909,                   47P     89
-3.14159265358979,3.14159265358979;                                   47P     90
128,1,1,1,1,0,0,1,0,0,-4.401,-4.401,4.401,4.401,-4.401,-4.401,        49P     91
4.401,4.401,1.,1.,1.,1.,-44.01,-44.01,18.,44.01,-44.01,18.,           49P     92
-44.01,44.01,18.,44.01,44.01,18.,-4.401,4.401,-4.401,4.401;           49P     93
128,1,1,1,1,0,0,1,0,0,-4.401,-4.401,4.401,4.401,-4.401,-4.401,        51P     94
4.401,4.401,1.,1.,1.,1.,44.01,-44.01,0.,-44.01,-44.01,0.,44.01,       51P     95
44.01,0.,-44.01,44.01,0.,-4.401,4.401,-4.401,4.401;                   51P     96
502,6,-42.,5.14351655641888D-15,2.,-42.,5.14351655641888D-15,         53P     97
18.,44.,0.,18.,-44.,0.,18.,-44.,0.,0.,44.,0.,0.;                      53P     98
504,8,27,53,1,53,1,29,53,1,53,2,31,53,2,53,2,33,53,3,53,4,35,53,      55P     99
4,53,3,37,53,4,53,5,39,53,5,53,6,41,53,6,53,5;                        55P    100
406,1,6HSolid1;                                                       57P    101
314,74.9019607843137,74.9019607843137,74.9019607843137,;              59P    102
S      1G      3D     60P    102                                        T      1
