                                                                        S      1
,,,13HSilicon_Valve,22HAutodesk Inventor 2020,7Hunknown,32,38,7,99,15,, G      1
1.,2,2HMM,1,0.08,15H20210701.160342,0.01,10000.,8HWorkshop,,11,0,15H2021G      2
0506.135805;                                                            G      3
     186       1                                                00000000D      1
     186             -83       1       0                               0D      2
     514       2                                                00010000D      3
     514                       1       1                               0D      4
     510       3                                                00010000D      5
     510             -83       1       1                               0D      6
     510       4                                                00010000D      7
     510             -83       1       1                               0D      8
     510       5                                                00010000D      9
     510             -83       1       1                               0D     10
     510       6                                                00010000D     11
     510             -83       1       1                               0D     12
     510       7                                                00010000D     13
     510             -83       1       1                               0D     14
     510       8                                                00010000D     15
     510             -83       1       1                               0D     16
     510       9                                                00010000D     17
     510             -83       1       1                               0D     18
     508      10                                                00010000D     19
     508                       1       1                               0D     20
     508      11                                                00010000D     21
     508                       2       1                               0D     22
     508      13                                                00010000D     23
     508                       1       1                               0D     24
     508      14                                                00010000D     25
     508                       1       1                               0D     26
     508      15                                                00010000D     27
     508                       1       1                               0D     28
     508      16                                                00010000D     29
     508                       1       1                               0D     30
     508      17                                                00010000D     31
     508                       2       1                               0D     32
     508      19                                                00010000D     33
     508                       1       1                               0D     34
     508      20                                                00010000D     35
     508                       1       1                               0D     36
     126      21                                                00010000D     37
     126       0               9       0                               0D     38
     126      30                                                00010000D     39
     126       0               2       0                               0D     40
     126      32                                                00010000D     41
     126       0               9       0                               0D     42
     126      41                                                00010000D     43
     126       0               5       0                               0D     44
     126      46                                                00010000D     45
     126       0               7       0                               0D     46
     126      53                                                00010000D     47
     126       0               2       0                               0D     48
     126      55                                                00010000D     49
     126       0               5       0                               0D     50
     126      60                                                00010000D     51
     126       0               7       0                               0D     52
     126      67                                                00010000D     53
     126       0               5       0                               0D     54
     126      72                                                00010000D     55
     126       0               7       0                               0D     56
     126      79                                                00010000D     57
     126       0               2       0                               0D     58
     126      81                                                00010000D     59
     126       0               7       0                               0D     60
     126      88                                                00010000D     61
     126       0               5       0                               0D     62
     128      93                                                00010000D     63
     128       0     -83      11       0                               0D     64
     128     104                                                00010000D     65
     128       0     -83      11       0                               0D     66
     128     115                                                00010000D     67
     128       0     -83       3       0                               0D     68
     128     118                                                00010000D     69
     128       0     -83       3       0                               0D     70
     128     121                                                00010000D     71
     128       0     -83      12       0                               0D     72
     128     133                                                00010000D     73
     128       0     -83       3       0                               0D     74
     128     136                                                00010000D     75
     128       0     -83       3       0                               0D     76
     502     139                                                00010000D     77
     502                       3       1                               0D     78
     504     142                                                00010001D     79
     504                       3       1                               0D     80
     406     145                                                00000000D     81
     406                       1      15                               0D     82
     314     146                                                00000200D     83
     314                       1       0                               0D     84
186,3,1,0,0,1,81;                                                      1P      1
514,7,5,1,7,1,9,1,11,1,13,1,15,1,17,1;                                 3P      2
510,63,1,1,19;                                                         5P      3
510,65,1,1,21;                                                         7P      4
510,67,2,1,23,25;                                                      9P      5
510,69,2,1,27,29;                                                     11P      6
510,71,1,1,31;                                                        13P      7
510,73,1,1,33;                                                        15P      8
510,75,1,1,35;                                                        17P      9
508,4,0,79,1,0,0,0,79,2,1,0,0,79,3,0,0,0,79,2,0,0;                    19P     10
508,6,0,79,4,0,0,0,79,5,0,0,0,79,6,1,0,0,79,7,0,0,0,79,8,0,0,0,       21P     11
79,6,0,0;                                                             21P     12
508,2,0,79,4,1,0,0,79,5,1,0;                                          23P     13
508,1,0,79,1,1,0;                                                     25P     14
508,2,0,79,9,1,0,0,79,10,1,0;                                         27P     15
508,2,0,79,7,1,0,0,79,8,1,0;                                          29P     16
508,6,0,79,9,0,0,0,79,10,0,0,0,79,11,1,0,0,79,12,1,0,0,79,13,1,       31P     17
0,0,79,11,0,0;                                                        31P     18
508,1,0,79,3,1,0;                                                     33P     19
508,2,0,79,13,0,0,0,79,12,0,0;                                        35P     20
126,8,2,0,1,0,0,-3.14159265358979,-3.14159265358979,                  37P     21
-3.14159265358979,-1.5707963267949,-1.5707963267949,0.,0.,            37P     22
1.5707963267949,1.5707963267949,3.14159265358979,                     37P     23
3.14159265358979,3.14159265358979,1.,0.707106781186548,1.,            37P     24
0.707106781186548,1.,0.707106781186548,1.,0.707106781186548,1.,       37P     25
1.,-1.22464679914735D-16,2.4,1.,-1.,2.4,-6.12323399573677D-17,        37P     26
-1.,2.4,-1.,-1.,2.4,-1.,0.,2.4,-1.,1.,2.4,-6.12323399573677D-17,      37P     27
1.,2.4,1.,1.,2.4,1.,1.22464679914735D-16,2.4,-3.14159265358979,       37P     28
3.14159265358979,0.,0.,0.;                                            37P     29
126,1,1,0,0,1,0,-2.,-2.,0.,0.,1.,1.,1.,0.,2.4,1.,0.,0.4,-2.,0.,       39P     30
0.,0.,0.;                                                             39P     31
126,8,2,0,1,0,0,-3.14159265358979,-3.14159265358979,                  41P     32
-3.14159265358979,-1.5707963267949,-1.5707963267949,0.,0.,            41P     33
1.5707963267949,1.5707963267949,3.14159265358979,                     41P     34
3.14159265358979,3.14159265358979,1.,0.707106781186548,1.,            41P     35
0.707106781186548,1.,0.707106781186548,1.,0.707106781186548,1.,       41P     36
1.,1.22464679914735D-16,0.4,1.,1.,0.4,-6.12323399573677D-17,1.,       41P     37
0.4,-1.,1.,0.4,-1.,0.,0.4,-1.,-1.,0.4,-6.12323399573677D-17,-1.,      41P     38
0.4,1.,-1.,0.4,1.,-1.22464679914735D-16,0.4,-3.14159265358979,        41P     39
3.14159265358979,0.,0.,0.;                                            41P     40
126,4,2,0,0,0,0,0.,0.,0.,1.5707963267949,1.5707963267949,             43P     41
3.14159265358979,3.14159265358979,3.14159265358979,1.,                43P     42
0.707106781186548,1.,0.707106781186548,1.,2.,0.,2.4,2.,2.,2.4,        43P     43
1.22464679914735D-16,2.,2.4,-2.,2.,2.4,-2.,2.44929359829471D-16,      43P     44
2.4,0.,3.14159265358979,0.,0.,0.;                                     43P     45
126,4,2,0,0,0,0,3.14159265358979,3.14159265358979,                    45P     46
3.14159265358979,4.71238898038469,4.71238898038469,                   45P     47
6.28318530717959,6.28318530717959,6.28318530717959,1.,                45P     48
0.707106781186548,1.,0.707106781186547,1.,-2.,                        45P     49
2.44929359829471D-16,2.4,-2.,-2.,2.4,-3.67394039744206D-16,-2.,       45P     50
2.4,2.,-2.,2.4,2.,-4.89858719658941D-16,2.4,3.14159265358979,         45P     51
6.28318530717959,0.,0.,0.;                                            45P     52
126,1,1,0,0,1,0,-1.,-1.,0.,0.,1.,1.,-2.,0.,2.4,-2.,0.,0.4,-1.,        47P     53
0.,0.,0.,0.;                                                          47P     54
126,4,2,0,0,0,0,0.,0.,0.,1.5707963267949,1.5707963267949,             49P     55
3.14159265358979,3.14159265358979,3.14159265358979,1.,                49P     56
0.707106781186548,1.,0.707106781186548,1.,2.,0.,0.4,2.,-2.,0.4,       49P     57
1.22464679914735D-16,-2.,0.4,-2.,-2.,0.4,-2.,                         49P     58
-2.44929359829471D-16,0.4,0.,3.14159265358979,0.,0.,0.;               49P     59
126,4,2,0,0,0,0,3.14159265358979,3.14159265358979,                    51P     60
3.14159265358979,4.71238898038469,4.71238898038469,                   51P     61
6.28318530717959,6.28318530717959,6.28318530717959,1.,                51P     62
0.707106781186548,1.,0.707106781186547,1.,-2.,                        51P     63
-2.44929359829471D-16,0.4,-2.,2.,0.4,-3.67394039744206D-16,2.,        51P     64
0.4,2.,2.,0.4,2.,4.89858719658941D-16,0.4,3.14159265358979,           51P     65
6.28318530717959,0.,0.,0.;                                            51P     66
126,4,2,0,0,0,0,0.,0.,0.,1.5707963267949,1.5707963267949,             53P     67
3.14159265358979,3.14159265358979,3.14159265358979,1.,                53P     68
0.707106781186548,1.,0.707106781186548,1.,12.5,0.,0.4,12.5,12.5,      53P     69
0.4,7.65404249467096D-16,12.5,0.4,-12.5,12.5,0.4,-12.5,               53P     70
1.53080849893419D-15,0.4,0.,3.14159265358979,0.,0.,0.;                53P     71
126,4,2,0,0,0,0,3.14159265358979,3.14159265358979,                    55P     72
3.14159265358979,4.71238898038469,4.71238898038469,                   55P     73
6.28318530717959,6.28318530717959,6.28318530717959,1.,                55P     74
0.707106781186548,1.,0.707106781186548,1.,-12.5,                      55P     75
1.53080849893419D-15,0.4,-12.5,-12.5,0.4,-2.29621274840129D-15,       55P     76
-12.5,0.4,12.5,-12.5,0.4,12.5,-3.06161699786838D-15,0.4,              55P     77
3.14159265358979,6.28318530717959,0.,0.,0.;                           55P     78
126,1,1,0,0,1,0,-0.032,-0.032,0.,0.,1.,1.,-12.5,0.,0.4,-12.5,0.,      57P     79
0.,-0.032,0.,0.,0.,0.;                                                57P     80
126,4,2,0,0,0,0,3.14159265358979,3.14159265358979,                    59P     81
3.14159265358979,4.71238898038469,4.71238898038469,                   59P     82
6.28318530717959,6.28318530717959,6.28318530717959,1.,                59P     83
0.707106781186548,1.,0.707106781186548,1.,-12.5,                      59P     84
1.53080849893419D-15,0.,-12.5,-12.5,0.,-2.29621274840129D-15,         59P     85
-12.5,0.,12.5,-12.5,0.,12.5,-3.06161699786838D-15,0.,                 59P     86
3.14159265358979,6.28318530717959,0.,0.,0.;                           59P     87
126,4,2,0,0,0,0,0.,0.,0.,1.5707963267949,1.5707963267949,             61P     88
3.14159265358979,3.14159265358979,3.14159265358979,1.,                61P     89
0.707106781186548,1.,0.707106781186548,1.,12.5,0.,0.,12.5,12.5,       61P     90
0.,7.65404249467096D-16,12.5,0.,-12.5,12.5,0.,-12.5,                  61P     91
1.53080849893419D-15,0.,0.,3.14159265358979,0.,0.,0.;                 61P     92
128,1,8,1,2,0,1,0,0,1,0.,0.,2.,2.,-3.14159265358979,                  63P     93
-3.14159265358979,-3.14159265358979,-1.5707963267949,                 63P     94
-1.5707963267949,0.,0.,1.5707963267949,1.5707963267949,               63P     95
3.14159265358979,3.14159265358979,3.14159265358979,1.,1.,             63P     96
0.707106781186548,0.707106781186548,1.,1.,0.707106781186548,          63P     97
0.707106781186548,1.,1.,0.707106781186548,0.707106781186548,1.,       63P     98
1.,0.707106781186548,0.707106781186548,1.,1.,1.,0.,0.4,1.,0.,         63P     99
2.4,1.,1.,0.4,1.,1.,2.4,0.,1.,0.4,0.,1.,2.4,-1.,1.,0.4,-1.,1.,        63P    100
2.4,-1.,0.,0.4,-1.,0.,2.4,-1.,-1.,0.4,-1.,-1.,2.4,0.,-1.,0.4,0.,      63P    101
-1.,2.4,1.,-1.,0.4,1.,-1.,2.4,1.,0.,0.4,1.,0.,2.4,0.,2.,              63P    102
-3.14159265358979,3.14159265358979;                                   63P    103
128,1,8,1,2,0,1,0,0,1,0.,0.,1.,1.,-3.14159265358979,                  65P    104
-3.14159265358979,-3.14159265358979,-1.5707963267949,                 65P    105
-1.5707963267949,0.,0.,1.5707963267949,1.5707963267949,               65P    106
3.14159265358979,3.14159265358979,3.14159265358979,1.,1.,             65P    107
0.707106781186548,0.707106781186548,1.,1.,0.707106781186548,          65P    108
0.707106781186548,1.,1.,0.707106781186548,0.707106781186548,1.,       65P    109
1.,0.707106781186548,0.707106781186548,1.,1.,-2.,0.,2.4,-2.,0.,       65P    110
0.4,-2.,-2.,2.4,-2.,-2.,0.4,0.,-2.,2.4,0.,-2.,0.4,2.,-2.,2.4,2.,      65P    111
-2.,0.4,2.,0.,2.4,2.,0.,0.4,2.,2.,2.4,2.,2.,0.4,0.,2.,2.4,0.,2.,      65P    112
0.4,-2.,2.,2.4,-2.,2.,0.4,-2.,0.,2.4,-2.,0.,0.4,0.,1.,                65P    113
-3.14159265358979,3.14159265358979;                                   65P    114
128,1,1,1,1,0,0,1,0,0,-0.201,-0.201,0.201,0.201,-0.201,-0.201,        67P    115
0.201,0.201,1.,1.,1.,1.,-2.01,-2.01,2.4,2.01,-2.01,2.4,-2.01,         67P    116
2.01,2.4,2.01,2.01,2.4,-0.201,0.201,-0.201,0.201;                     67P    117
128,1,1,1,1,0,0,1,0,0,-1.251,-1.251,1.251,1.251,-1.251,-1.251,        69P    118
1.251,1.251,1.,1.,1.,1.,-12.51,-12.51,0.4,12.51,-12.51,0.4,           69P    119
-12.51,12.51,0.4,12.51,12.51,0.4,-1.251,1.251,-1.251,1.251;           69P    120
128,1,8,1,2,0,1,0,0,1,0.,0.,0.032,0.032,-3.14159265358979,            71P    121
-3.14159265358979,-3.14159265358979,-1.5707963267949,                 71P    122
-1.5707963267949,0.,0.,1.5707963267949,1.5707963267949,               71P    123
3.14159265358979,3.14159265358979,3.14159265358979,1.,1.,             71P    124
0.707106781186548,0.707106781186548,1.,1.,0.707106781186548,          71P    125
0.707106781186548,1.,1.,0.707106781186548,0.707106781186548,1.,       71P    126
1.,0.707106781186548,0.707106781186548,1.,1.,-12.5,0.,0.4,-12.5,      71P    127
0.,0.,-12.5,-12.5,0.4,-12.5,-12.5,0.,0.,-12.5,0.4,0.,-12.5,0.,        71P    128
12.5,-12.5,0.4,12.5,-12.5,0.,12.5,0.,0.4,12.5,0.,0.,12.5,12.5,        71P    129
0.4,12.5,12.5,0.,0.,12.5,0.4,0.,12.5,0.,-12.5,12.5,0.4,-12.5,         71P    130
12.5,0.,-12.5,0.,0.4,-12.5,0.,0.,0.,0.032,-3.14159265358979,          71P    131
3.14159265358979;                                                     71P    132
128,1,1,1,1,0,0,1,0,0,-0.101,-0.101,0.101,0.101,-0.101,-0.101,        73P    133
0.101,0.101,1.,1.,1.,1.,-1.01,-1.01,0.4,1.01,-1.01,0.4,-1.01,         73P    134
1.01,0.4,1.01,1.01,0.4,-0.101,0.101,-0.101,0.101;                     73P    135
128,1,1,1,1,0,0,1,0,0,-1.251,-1.251,1.251,1.251,-1.251,-1.251,        75P    136
1.251,1.251,1.,1.,1.,1.,12.51,-12.51,0.,-12.51,-12.51,0.,12.51,       75P    137
12.51,0.,-12.51,12.51,0.,-1.251,1.251,-1.251,1.251;                   75P    138
502,10,1.,1.22464679914735D-16,2.4,1.,1.22464679914735D-16,0.4,       77P    139
2.,0.,2.4,-2.,0.,2.4,-2.,0.,0.4,2.,0.,0.4,12.5,0.,0.4,-12.5,0.,       77P    140
0.4,-12.5,0.,0.,12.5,0.,0.;                                           77P    141
504,13,37,77,1,77,1,39,77,1,77,2,41,77,2,77,2,43,77,3,77,4,45,        79P    142
77,4,77,3,47,77,4,77,5,49,77,6,77,5,51,77,5,77,6,53,77,7,77,8,        79P    143
55,77,8,77,7,57,77,8,77,9,59,77,9,77,10,61,77,10,77,9;                79P    144
406,1,6HSolid1;                                                       81P    145
314,41.5686274509804,95.2941176470588,84.7058823529412,;              83P    146
S      1G      3D     84P    146                                        T      1
