  0
SECTION
  2
HEADER
  9
$ACADVER
  1
AC1027
  9
$ACADMAINTVER
 70
     8
  9
$DWGCODEPAGE
  3
ANSI_1252
  9
$REQUIREDVERSIONS
160
                 0
  9
$INSBASE
 10
0.0
 20
0.0
 30
0.0
  9
$EXTMIN
 10
62.612588
 20
-148.01326
 30
0.0
  9
$EXTMAX
 10
787.783652
 20
328.596383
 30
0.0
  9
$LIMMIN
 10
0.0
 20
0.0
  9
$LIMMAX
 10
420.0
 20
297.0
  9
$ORTHOMODE
 70
     0
  9
$REGENMODE
 70
     1
  9
$FILLMODE
 70
     1
  9
$QTEXTMODE
 70
     0
  9
$MIRRTEXT
 70
     0
  9
$LTSCALE
 40
1.0
  9
$ATTMODE
 70
     1
  9
$TEXTSIZE
 40
2.5
  9
$TRACEWID
 40
1.0
  9
$TEXTSTYLE
  7
Standard
  9
$CLAYER
  8
0
  9
$CELTYPE
  6
ByLayer
  9
$CECOLOR
 62
   256
  9
$CELTSCALE
 40
1.0
  9
$DISPSILH
 70
     0
  9
$DIMSCALE
 40
1.0
  9
$DIMASZ
 40
2.5
  9
$DIMEXO
 40
0.5
  9
$DIMDLI
 40
6.0
  9
$DIMRND
 40
0.0
  9
$DIMDLE
 40
0.0
  9
$DIMEXE
 40
0.0
  9
$DIMTP
 40
0.0
  9
$DIMTM
 40
0.0
  9
$DIMTXT
 40
2.5
  9
$DIMCEN
 40
2.5
  9
$DIMTSZ
 40
0.0
  9
$DIMTOL
 70
     0
  9
$DIMLIM
 70
     0
  9
$DIMTIH
 70
     0
  9
$DIMTOH
 70
     1
  9
$DIMSE1
 70
     0
  9
$DIMSE2
 70
     0
  9
$DIMTAD
 70
     0
  9
$DIMZIN
 70
     0
  9
$DIMBLK
  1

  9
$DIMASO
 70
     1
  9
$DIMSHO
 70
     1
  9
$DIMPOST
  1

  9
$DIMAPOST
  1

  9
$DIMALT
 70
     0
  9
$DIMALTD
 70
     2
  9
$DIMALTF
 40
25.4
  9
$DIMLFAC
 40
1.0
  9
$DIMTOFL
 70
     0
  9
$DIMTVP
 40
0.0
  9
$DIMTIX
 70
     0
  9
$DIMSOXD
 70
     0
  9
$DIMSAH
 70
     0
  9
$DIMBLK1
  1

  9
$DIMBLK2
  1

  9
$DIMSTYLE
  2
Standard
  9
$DIMCLRD
 70
     0
  9
$DIMCLRE
 70
     0
  9
$DIMCLRT
 70
     0
  9
$DIMTFAC
 40
1.0
  9
$DIMGAP
 40
1.0
  9
$DIMJUST
 70
     0
  9
$DIMSD1
 70
     0
  9
$DIMSD2
 70
     0
  9
$DIMTOLJ
 70
     1
  9
$DIMTZIN
 70
     0
  9
$DIMALTZ
 70
     0
  9
$DIMALTTZ
 70
     0
  9
$DIMUPT
 70
     0
  9
$DIMDEC
 70
     4
  9
$DIMTDEC
 70
     4
  9
$DIMALTU
 70
     2
  9
$DIMALTTD
 70
     2
  9
$DIMTXSTY
  7
Standard
  9
$DIMAUNIT
 70
     0
  9
$DIMADEC
 70
     0
  9
$DIMALTRND
 40
0.0
  9
$DIMAZIN
 70
     0
  9
$DIMDSEP
 70
    46
  9
$DIMATFIT
 70
     3
  9
$DIMFRAC
 70
     0
  9
$DIMLDRBLK
  1

  9
$DIMLUNIT
 70
     2
  9
$DIMLWD
 70
    -2
  9
$DIMLWE
 70
    -2
  9
$DIMTMOVE
 70
     0
  9
$DIMFXL
 40
1.0
  9
$DIMFXLON
 70
     0
  9
$DIMJOGANG
 40
0.785398
  9
$DIMTFILL
 70
     0
  9
$DIMTFILLCLR
 70
     0
  9
$DIMARCSYM
 70
     0
  9
$DIMLTYPE
  6
ByLayer
  9
$DIMLTEX1
  6
ByLayer
  9
$DIMLTEX2
  6
ByLayer
  9
$DIMTXTDIRECTION
 70
     0
  9
$LUNITS
 70
     2
  9
$LUPREC
 70
     4
  9
$SKETCHINC
 40
1.0
  9
$FILLETRAD
 40
0.0
  9
$AUNITS
 70
     0
  9
$AUPREC
 70
     0
  9
$MENU
  1
.
  9
$ELEVATION
 40
0.0
  9
$PELEVATION
 40
0.0
  9
$THICKNESS
 40
0.0
  9
$LIMCHECK
 70
     0
  9
$CHAMFERA
 40
0.0
  9
$CHAMFERB
 40
0.0
  9
$CHAMFERC
 40
0.0
  9
$CHAMFERD
 40
0.0
  9
$SKPOLY
 70
     0
  9
$TDCREATE
 40
2454083.137550046
  9
$TDUCREATE
 40
2454082.90838338
  9
$TDUPDATE
 40
2459397.718633137
  9
$TDUUPDATE
 40
2459397.48946647
  9
$TDINDWG
 40
0.0105753588
  9
$TDUSRTIMER
 40
0.0105751736
  9
$USRTIMER
 70
     1
  9
$ANGBASE
 50
0.0
  9
$ANGDIR
 70
     0
  9
$PDMODE
 70
     0
  9
$PDSIZE
 40
0.0
  9
$PLINEWID
 40
0.0
  9
$SPLFRAME
 70
     0
  9
$SPLINETYPE
 70
     6
  9
$SPLINESEGS
 70
     8
  9
$HANDSEED
  5
156
  9
$SURFTAB1
 70
     6
  9
$SURFTAB2
 70
     6
  9
$SURFTYPE
 70
     6
  9
$SURFU
 70
     6
  9
$SURFV
 70
     6
  9
$UCSBASE
  2

  9
$UCSNAME
  2

  9
$UCSORG
 10
0.0
 20
0.0
 30
0.0
  9
$UCSXDIR
 10
1.0
 20
0.0
 30
0.0
  9
$UCSYDIR
 10
0.0
 20
1.0
 30
0.0
  9
$UCSORTHOREF
  2

  9
$UCSORTHOVIEW
 70
     0
  9
$UCSORGTOP
 10
0.0
 20
0.0
 30
0.0
  9
$UCSORGBOTTOM
 10
0.0
 20
0.0
 30
0.0
  9
$UCSORGLEFT
 10
0.0
 20
0.0
 30
0.0
  9
$UCSORGRIGHT
 10
0.0
 20
0.0
 30
0.0
  9
$UCSORGFRONT
 10
0.0
 20
0.0
 30
0.0
  9
$UCSORGBACK
 10
0.0
 20
0.0
 30
0.0
  9
$PUCSBASE
  2

  9
$PUCSNAME
  2

  9
$PUCSORG
 10
0.0
 20
0.0
 30
0.0
  9
$PUCSXDIR
 10
1.0
 20
0.0
 30
0.0
  9
$PUCSYDIR
 10
0.0
 20
1.0
 30
0.0
  9
$PUCSORTHOREF
  2

  9
$PUCSORTHOVIEW
 70
     0
  9
$PUCSORGTOP
 10
0.0
 20
0.0
 30
0.0
  9
$PUCSORGBOTTOM
 10
0.0
 20
0.0
 30
0.0
  9
$PUCSORGLEFT
 10
0.0
 20
0.0
 30
0.0
  9
$PUCSORGRIGHT
 10
0.0
 20
0.0
 30
0.0
  9
$PUCSORGFRONT
 10
0.0
 20
0.0
 30
0.0
  9
$PUCSORGBACK
 10
0.0
 20
0.0
 30
0.0
  9
$USERI1
 70
     0
  9
$USERI2
 70
     0
  9
$USERI3
 70
     0
  9
$USERI4
 70
     0
  9
$USERI5
 70
     0
  9
$USERR1
 40
0.0
  9
$USERR2
 40
0.0
  9
$USERR3
 40
0.0
  9
$USERR4
 40
0.0
  9
$USERR5
 40
0.0
  9
$WORLDVIEW
 70
     1
  9
$SHADEDGE
 70
     3
  9
$SHADEDIF
 70
    70
  9
$TILEMODE
 70
     1
  9
$MAXACTVP
 70
    64
  9
$PINSBASE
 10
0.0
 20
0.0
 30
0.0
  9
$PLIMCHECK
 70
     0
  9
$PEXTMIN
 10
0.0
 20
0.0
 30
0.0
  9
$PEXTMAX
 10
0.0
 20
0.0
 30
0.0
  9
$PLIMMIN
 10
-20.0
 20
-7.5
  9
$PLIMMAX
 10
277.0
 20
202.5
  9
$UNITMODE
 70
     0
  9
$VISRETAIN
 70
     1
  9
$PLINEGEN
 70
     0
  9
$PSLTSCALE
 70
     0
  9
$TREEDEPTH
 70
  3020
  9
$CMLSTYLE
  2
Standard
  9
$CMLJUST
 70
     0
  9
$CMLSCALE
 40
20.0
  9
$PROXYGRAPHICS
 70
     1
  9
$MEASUREMENT
 70
     1
  9
$CELWEIGHT
370
    -1
  9
$ENDCAPS
280
     0
  9
$JOINSTYLE
280
     0
  9
$LWDISPLAY
290
     1
  9
$INSUNITS
 70
     4
  9
$HYPERLINKBASE
  1

  9
$STYLESHEET
  1

  9
$XEDIT
290
     1
  9
$CEPSNTYPE
380
     0
  9
$PSTYLEMODE
290
     1
  9
$FINGERPRINTGUID
  2
{78B0F746-B111-4909-95E5-2EF5CBA97683}
  9
$VERSIONGUID
  2
{88884FFE-1838-4093-901C-E4DA6EFB818F}
  9
$EXTNAMES
290
     1
  9
$PSVPSCALE
 40
0.0
  9
$OLESTARTUP
290
     0
  9
$SORTENTS
280
   127
  9
$INDEXCTL
280
     0
  9
$HIDETEXT
280
     1
  9
$XCLIPFRAME
280
     0
  9
$HALOGAP
280
     0
  9
$OBSCOLOR
 70
   257
  9
$OBSLTYPE
280
     0
  9
$INTERSECTIONDISPLAY
280
     0
  9
$INTERSECTIONCOLOR
 70
   257
  9
$DIMASSOC
280
     2
  9
$PROJECTNAME
  1

  9
$CAMERADISPLAY
290
     0
  9
$LENSLENGTH
 40
50.0
  9
$CAMERAHEIGHT
 40
0.0
  9
$STEPSPERSEC
 40
2.0
  9
$STEPSIZE
 40
6.0
  9
$3DDWFPREC
 40
2.0
  9
$PSOLWIDTH
 40
5.0
  9
$PSOLHEIGHT
 40
80.0
  9
$LOFTANG1
 40
1.570796
  9
$LOFTANG2
 40
1.570796
  9
$LOFTMAG1
 40
0.0
  9
$LOFTMAG2
 40
0.0
  9
$LOFTPARAM
 70
     7
  9
$LOFTNORMALS
280
     1
  9
$LATITUDE
 40
37.795
  9
$LONGITUDE
 40
-122.394
  9
$NORTHDIRECTION
 40
0.0
  9
$TIMEZONE
 70
 -8000
  9
$LIGHTGLYPHDISPLAY
280
     1
  9
$TILEMODELIGHTSYNCH
280
     1
  9
$CMATERIAL
347
12
  9
$SOLIDHIST
280
     1
  9
$SHOWHIST
280
     1
  9
$DWFFRAME
280
     2
  9
$DGNFRAME
280
     0
  9
$REALWORLDSCALE
290
     1
  9
$INTERFERECOLOR
 62
     1
  9
$CSHADOW
280
     0
  9
$SHADOWPLANELOCATION
 40
0.0
  0
ENDSEC
  0
SECTION
  2
CLASSES
  0
CLASS
  1
ACDBDICTIONARYWDFLT
  2
AcDbDictionaryWithDefault
  3
ObjectDBX Classes
 90
        0
 91
       14
280
     0
281
     0
  0
CLASS
  1
MATERIAL
  2
AcDbMaterial
  3
ObjectDBX Classes
 90
     1153
 91
       13
280
     0
281
     0
  0
CLASS
  1
SORTENTSTABLE
  2
AcDbSortentsTable
  3
ObjectDBX Classes
 90
        0
 91
        9
280
     0
281
     0
  0
CLASS
  1
LAYOUTPRINTCONFIG
  2
CAcLayoutPrintConfig
  3
"CSD_APP"
 90
     4095
 91
        9
280
     0
281
     1
  0
CLASS
  1
SUN
  2
AcDbSun
  3
SCENEOE
 90
     1153
 91
       13
280
     0
281
     0
  0
CLASS
  1
SCALE
  2
AcDbScale
  3
ObjectDBX Classes
 90
     1153
 91
       13
280
     0
281
     0
  0
CLASS
  1
VISUALSTYLE
  2
AcDbVisualStyle
  3
ObjectDBX Classes
 90
     4095
 91
       12
280
     0
281
     0
  0
CLASS
  1
DICTIONARYVAR
  2
AcDbDictionaryVar
  3
ObjectDBX Classes
 90
        0
 91
        9
280
     0
281
     0
  0
ENDSEC
  0
SECTION
  2
TABLES
  0
TABLE
  2
VPORT
  5
28
330
0
100
AcDbSymbolTable
 70
     1
  0
VPORT
  5
2D
330
28
100
AcDbSymbolTableRecord
100
AcDbViewportTableRecord
  2
*Active
 70
     0
 10
0.0
 20
0.0
 11
1.0
 21
1.0
 12
259.543214
 22
-70.948905
 13
0.0
 23
0.0
 14
10.0
 24
10.0
 15
10.0
 25
10.0
 16
0.0
 26
0.0
 36
1.0
 17
210.0
 27
148.5
 37
0.0
 40
486.141836
 41
1.893993
 42
50.0
 43
0.0
 44
0.0
 50
0.0
 51
0.0
 71
    16
 72
  1000
 73
     1
 74
     3
 75
     0
 76
     0
 77
     0
 78
     0
281
     0
 65
     1
110
0.0
120
0.0
130
0.0
111
1.0
121
0.0
131
0.0
112
0.0
122
1.0
132
0.0
 79
     0
146
0.0
 60
     2
 61
     5
292
     1
282
     1
141
0.0
142
0.0
 63
   250
421
  3355443
361
2E
  0
ENDTAB
  0
TABLE
  2
LTYPE
  5
D
330
0
100
AcDbSymbolTable
 70
     1
  0
LTYPE
  5
E
330
D
100
AcDbSymbolTableRecord
100
AcDbLinetypeTableRecord
  2
ByBlock
 70
     0
  3

 72
    65
 73
     0
 40
0.0
  0
LTYPE
  5
F
330
D
100
AcDbSymbolTableRecord
100
AcDbLinetypeTableRecord
  2
ByLayer
 70
     0
  3

 72
    65
 73
     0
 40
0.0
  0
LTYPE
  5
C
330
D
100
AcDbSymbolTableRecord
100
AcDbLinetypeTableRecord
  2
Continuous
 70
     0
  3
Solid line
 72
    65
 73
     0
 40
0.0
  0
ENDTAB
  0
TABLE
  2
LAYER
  5
2
102
{ACAD_XDICTIONARY
360
3
102
}
330
0
100
AcDbSymbolTable
 70
     2
  0
LAYER
  5
1
330
2
100
AcDbSymbolTableRecord
100
AcDbLayerTableRecord
  2
0
 70
     0
 62
     7
  6
Continuous
370
    -3
390
5
347
8
348
0
  0
ENDTAB
  0
TABLE
  2
STYLE
  5
11
330
0
100
AcDbSymbolTable
 70
     3
  0
STYLE
  5
10
330
11
100
AcDbSymbolTableRecord
100
AcDbTextStyleTableRecord
  2
Standard
 70
     0
 40
0.0
 41
1.0
 50
0.0
 71
     0
 42
2.5
  3
txt.shx
  4

  0
ENDTAB
  0
TABLE
  2
VIEW
  5
26
330
0
100
AcDbSymbolTable
 70
     0
  0
ENDTAB
  0
TABLE
  2
UCS
  5
27
330
0
100
AcDbSymbolTable
 70
     0
  0
ENDTAB
  0
TABLE
  2
APPID
  5
B
330
0
100
AcDbSymbolTable
 70
    15
  0
APPID
  5
A
330
B
100
AcDbSymbolTableRecord
100
AcDbRegAppTableRecord
  2
ACAD
 70
     0
  0
APPID
  5
21
330
B
100
AcDbSymbolTableRecord
100
AcDbRegAppTableRecord
  2
ACAD_PSEXT
 70
     0
  0
APPID
  5
14E
330
B
100
AcDbSymbolTableRecord
100
AcDbRegAppTableRecord
  2
MC_VERSION_DATA
 70
     0
  0
ENDTAB
  0
TABLE
  2
DIMSTYLE
  5
14
330
0
100
AcDbSymbolTable
 70
     1
100
AcDbDimStyleTable
  0
DIMSTYLE
105
13
330
14
100
AcDbSymbolTableRecord
100
AcDbDimStyleTableRecord
  2
Standard
 70
     0
 40
100.0
 41
2.5
 42
0.5
 43
6.0
 44
0.0
 50
45.000001
 73
     0
140
2.5
141
2.5
143
25.4
147
1.0
178
     0
340
10
345
F
346
F
347
F
  0
ENDTAB
  0
TABLE
  2
BLOCK_RECORD
  5
17
330
0
100
AcDbSymbolTable
 70
     9
  0
BLOCK_RECORD
  5
18
102
{ACAD_XDICTIONARY
360
19
102
}
330
17
100
AcDbSymbolTableRecord
100
AcDbBlockTableRecord
  2
*Model_Space
340
1D
 70
     0
280
     1
281
     0
  0
BLOCK_RECORD
  5
22
330
17
100
AcDbSymbolTableRecord
100
AcDbBlockTableRecord
  2
*Paper_Space
340
25
 70
     0
280
     1
281
     0
  0
BLOCK_RECORD
  5
13B
330
17
100
AcDbSymbolTableRecord
100
AcDbBlockTableRecord
  2
*Paper_Space0
340
13E
 70
     0
280
     1
281
     0
  0
BLOCK_RECORD
  5
145
330
17
100
AcDbSymbolTableRecord
100
AcDbBlockTableRecord
  2
*Paper_Space4
340
148
 70
     0
280
     1
281
     0
  0
BLOCK_RECORD
  5
12A
330
17
100
AcDbSymbolTableRecord
100
AcDbBlockTableRecord
  2
*Paper_Space5
340
12D
 70
     0
280
     1
281
     0
  0
BLOCK_RECORD
  5
140
330
17
100
AcDbSymbolTableRecord
100
AcDbBlockTableRecord
  2
*Paper_Space6
340
143
 70
     0
280
     1
281
     0
  0
BLOCK_RECORD
  5
131
330
17
100
AcDbSymbolTableRecord
100
AcDbBlockTableRecord
  2
*Paper_Space7
340
134
 70
     0
280
     1
281
     0
  0
BLOCK_RECORD
  5
136
330
17
100
AcDbSymbolTableRecord
100
AcDbBlockTableRecord
  2
*Paper_Space8
340
139
 70
     0
280
     1
281
     0
  0
ENDTAB
  0
ENDSEC
  0
SECTION
  2
BLOCKS
  0
BLOCK
  5
1B
330
18
100
AcDbEntity
  8
0
100
AcDbBlockBegin
  2
*Model_Space
 70
     0
 10
0.0
 20
0.0
 30
0.0
  3
*Model_Space
  1
*Model_Space
  0
ENDBLK
  5
1C
330
18
100
AcDbEntity
  8
0
100
AcDbBlockEnd
  0
BLOCK
  5
23
330
22
100
AcDbEntity
 67
     1
  8
0
100
AcDbBlockBegin
  2
*Paper_Space
 70
     0
 10
0.0
 20
0.0
 30
0.0
  3
*Paper_Space
  1
*Paper_Space
  0
ENDBLK
  5
24
330
22
100
AcDbEntity
 67
     1
  8
0
100
AcDbBlockEnd
  0
BLOCK
  5
13C
330
13B
100
AcDbEntity
  8
0
100
AcDbBlockBegin
  2
*Paper_Space0
 70
     0
 10
0.0
 20
0.0
 30
0.0
  3
*Paper_Space0
  1
*Paper_Space0
  0
VIEWPORT
  5
13F
330
13B
100
AcDbEntity
  8
0
 48
100.0
100
AcDbViewport
 10
0.0
 20
0.0
 30
0.0
 40
840.779612
 41
486.114466
 68
     1
 69
     1
 12
328.692132
 22
196.71883
 13
0.0
 23
0.0
 14
10.0
 24
10.0
 15
10.0
 25
10.0
 16
0.0
 26
0.0
 36
1.0
 17
0.0
 27
0.0
 37
0.0
 42
50.0
 43
0.0
 44
0.0
 45
486.114466
 50
0.0
 51
0.0
 72
   100
 90
   557168
  1

281
     0
 71
     1
 74
     0
110
0.0
120
0.0
130
0.0
111
1.0
121
0.0
131
0.0
112
0.0
122
1.0
132
0.0
 79
     0
146
0.0
170
     0
 61
     5
348
12F
292
     1
282
     1
141
0.0
142
0.0
 63
   256
  0
ENDBLK
  5
13D
330
13B
100
AcDbEntity
  8
0
100
AcDbBlockEnd
  0
BLOCK
  5
146
330
145
100
AcDbEntity
  8
0
100
AcDbBlockBegin
  2
*Paper_Space4
 70
     0
 10
0.0
 20
0.0
 30
0.0
  3
*Paper_Space4
  1
*Paper_Space4
  0
VIEWPORT
  5
149
330
145
100
AcDbEntity
  8
0
 48
100.0
100
AcDbViewport
 10
0.0
 20
0.0
 30
0.0
 40
1715.87676
 41
992.070339
 68
     1
 69
     1
 12
497.20797
 22
380.27835
 13
0.0
 23
0.0
 14
10.0
 24
10.0
 15
10.0
 25
10.0
 16
0.0
 26
0.0
 36
1.0
 17
0.0
 27
0.0
 37
0.0
 42
50.0
 43
0.0
 44
0.0
 45
992.070339
 50
0.0
 51
0.0
 72
   100
 90
   557168
  1

281
     0
 71
     1
 74
     0
110
0.0
120
0.0
130
0.0
111
1.0
121
0.0
131
0.0
112
0.0
122
1.0
132
0.0
 79
     0
146
0.0
170
     0
 61
     5
348
12F
292
     1
282
     1
141
0.0
142
0.0
 63
   256
  0
ENDBLK
  5
147
330
145
100
AcDbEntity
  8
0
100
AcDbBlockEnd
  0
BLOCK
  5
12B
330
12A
100
AcDbEntity
  8
0
100
AcDbBlockBegin
  2
*Paper_Space5
 70
     0
 10
0.0
 20
0.0
 30
0.0
  3
*Paper_Space5
  1
*Paper_Space5
  0
VIEWPORT
  5
12E
330
12A
100
AcDbEntity
  8
0
 48
100.0
100
AcDbViewport
 10
0.0
 20
0.0
 30
0.0
 40
460.802478
 41
238.196088
 68
     1
 69
     1
 12
128.5
 22
97.5
 13
0.0
 23
0.0
 14
10.0
 24
10.0
 15
10.0
 25
10.0
 16
0.0
 26
0.0
 36
1.0
 17
0.0
 27
0.0
 37
0.0
 42
50.0
 43
0.0
 44
0.0
 45
238.196088
 50
0.0
 51
0.0
 72
   100
 90
   557168
  1

281
     0
 71
     1
 74
     0
110
0.0
120
0.0
130
0.0
111
1.0
121
0.0
131
0.0
112
0.0
122
1.0
132
0.0
 79
     0
146
0.0
170
     0
 61
     5
348
12F
292
     1
282
     1
141
0.0
142
0.0
 63
   256
  0
ENDBLK
  5
12C
330
12A
100
AcDbEntity
  8
0
100
AcDbBlockEnd
  0
BLOCK
  5
141
330
140
100
AcDbEntity
  8
0
100
AcDbBlockBegin
  2
*Paper_Space6
 70
     0
 10
0.0
 20
0.0
 30
0.0
  3
*Paper_Space6
  1
*Paper_Space6
  0
VIEWPORT
  5
144
330
140
100
AcDbEntity
  8
0
 48
100.0
100
AcDbViewport
 10
0.0
 20
0.0
 30
0.0
 40
1201.113732
 41
694.449237
 68
     1
 69
     1
 12
454.893705
 22
285.342469
 13
0.0
 23
0.0
 14
10.0
 24
10.0
 15
10.0
 25
10.0
 16
0.0
 26
0.0
 36
1.0
 17
0.0
 27
0.0
 37
0.0
 42
50.0
 43
0.0
 44
0.0
 45
694.449237
 50
0.0
 51
0.0
 72
   100
 90
   557168
  1

281
     0
 71
     1
 74
     0
110
0.0
120
0.0
130
0.0
111
1.0
121
0.0
131
0.0
112
0.0
122
1.0
132
0.0
 79
     0
146
0.0
170
     0
 61
     5
348
12F
292
     1
282
     1
141
0.0
142
0.0
 63
   256
  0
ENDBLK
  5
142
330
140
100
AcDbEntity
  8
0
100
AcDbBlockEnd
  0
BLOCK
  5
132
330
131
100
AcDbEntity
  8
0
100
AcDbBlockBegin
  2
*Paper_Space7
 70
     0
 10
0.0
 20
0.0
 30
0.0
  3
*Paper_Space7
  1
*Paper_Space7
  0
VIEWPORT
  5
135
330
131
100
AcDbEntity
  8
0
 48
100.0
100
AcDbViewport
 10
0.0
 20
0.0
 30
0.0
 40
588.545729
 41
340.280126
 68
     1
 69
     1
 12
151.627136
 22
129.479246
 13
0.0
 23
0.0
 14
10.0
 24
10.0
 15
10.0
 25
10.0
 16
0.0
 26
0.0
 36
1.0
 17
0.0
 27
0.0
 37
0.0
 42
50.0
 43
0.0
 44
0.0
 45
340.280126
 50
0.0
 51
0.0
 72
   100
 90
   557168
  1

281
     0
 71
     1
 74
     0
110
0.0
120
0.0
130
0.0
111
1.0
121
0.0
131
0.0
112
0.0
122
1.0
132
0.0
 79
     0
146
0.0
170
     0
 61
     5
348
12F
292
     1
282
     1
141
0.0
142
0.0
 63
   256
  0
ENDBLK
  5
133
330
131
100
AcDbEntity
  8
0
100
AcDbBlockEnd
  0
BLOCK
  5
137
330
136
100
AcDbEntity
  8
0
100
AcDbBlockBegin
  2
*Paper_Space8
 70
     0
 10
0.0
 20
0.0
 30
0.0
  3
*Paper_Space8
  1
*Paper_Space8
  0
VIEWPORT
  5
13A
330
136
100
AcDbEntity
  8
0
 48
100.0
100
AcDbViewport
 10
0.0
 20
0.0
 30
0.0
 40
588.545729
 41
340.280126
 68
     1
 69
     1
 12
213.910905
 22
130.914724
 13
0.0
 23
0.0
 14
10.0
 24
10.0
 15
10.0
 25
10.0
 16
0.0
 26
0.0
 36
1.0
 17
0.0
 27
0.0
 37
0.0
 42
50.0
 43
0.0
 44
0.0
 45
340.280126
 50
0.0
 51
0.0
 72
   100
 90
   557168
  1

281
     0
 71
     1
 74
     0
110
0.0
120
0.0
130
0.0
111
1.0
121
0.0
131
0.0
112
0.0
122
1.0
132
0.0
 79
     0
146
0.0
170
     0
 61
     5
348
12F
292
     1
282
     1
141
0.0
142
0.0
 63
   256
  0
ENDBLK
  5
138
330
136
100
AcDbEntity
  8
0
100
AcDbBlockEnd
  0
ENDSEC
  0
SECTION
  2
ENTITIES
  0
CIRCLE
  5
54
330
18
100
AcDbEntity
  8
0
 62
     2
100
AcDbCircle
 10
292.010936
 20
233.226436
 30
0.0
 40
47.0
  0
LWPOLYLINE
  5
55
330
18
100
AcDbEntity
  8
0
 62
     2
100
AcDbPolyline
 90
        5
 70
     0
 43
0.0
 10
289.958967
 20
236.745024
 10
289.95897
 20
242.880207
 42
0.297141
 10
282.350226
 20
235.245479
 10
288.469834
 20
235.239303
 42
-0.132252
 10
289.95897
 20
236.745026
  0
LWPOLYLINE
  5
56
330
18
100
AcDbEntity
  8
0
 62
     2
100
AcDbPolyline
 90
        5
 70
     0
 43
0.0
 10
294.062905
 20
236.745024
 10
294.062902
 20
242.880207
 42
-0.297141
 10
301.671646
 20
235.245479
 10
295.552038
 20
235.239303
 42
0.132252
 10
294.062902
 20
236.745026
  0
LWPOLYLINE
  5
57
330
18
100
AcDbEntity
  8
0
 62
     2
100
AcDbPolyline
 90
        5
 70
     0
 43
0.0
 10
289.958967
 20
229.707848
 10
289.95897
 20
223.572665
 42
-0.297141
 10
282.350226
 20
231.207393
 10
288.469834
 20
231.213569
 42
0.132252
 10
289.95897
 20
229.707846
  0
LWPOLYLINE
  5
58
330
18
100
AcDbEntity
  8
0
 62
     2
100
AcDbPolyline
 90
        5
 70
     0
 43
0.0
 10
294.062905
 20
229.707848
 10
294.062902
 20
223.572665
 42
0.297141
 10
301.671646
 20
231.207393
 10
295.552038
 20
231.213569
 42
-0.132252
 10
294.062902
 20
229.707846
  0
CIRCLE
  5
59
330
18
100
AcDbEntity
  8
0
 62
     2
100
AcDbCircle
 10
292.010936
 20
233.226436
 30
0.0
 40
1.5
  0
CIRCLE
  5
5A
330
18
100
AcDbEntity
  8
0
 62
     2
100
AcDbCircle
 10
280.608801
 20
244.628494
 30
0.0
 40
1.5
  0
CIRCLE
  5
5B
330
18
100
AcDbEntity
  8
0
 62
     2
100
AcDbCircle
 10
280.608878
 20
221.824301
 30
0.0
 40
1.5
  0
CIRCLE
  5
5C
330
18
100
AcDbEntity
  8
0
 62
     2
100
AcDbCircle
 10
303.413071
 20
221.824378
 30
0.0
 40
1.5
  0
CIRCLE
  5
5D
330
18
100
AcDbEntity
  8
0
 62
     2
100
AcDbCircle
 10
303.412994
 20
244.628571
 30
0.0
 40
1.5
  0
CIRCLE
  5
5E
330
18
100
AcDbEntity
  8
0
 62
     2
100
AcDbCircle
 10
261.035169
 20
233.226436
 30
0.0
 40
2.25
  0
LWPOLYLINE
  5
5F
330
18
100
AcDbEntity
  8
0
 62
     2
100
AcDbPolyline
 90
        5
 70
     0
 43
0.0
 10
258.983201
 20
236.745024
 10
258.983203
 20
242.880207
 42
0.297141
 10
251.374459
 20
235.245479
 10
257.494067
 20
235.239303
 42
-0.132252
 10
258.983203
 20
236.745026
  0
LWPOLYLINE
  5
60
330
18
100
AcDbEntity
  8
0
 62
     2
100
AcDbPolyline
 90
        5
 70
     0
 43
0.0
 10
263.087138
 20
236.745024
 10
263.087135
 20
242.880207
 42
-0.297141
 10
270.695879
 20
235.245479
 10
264.576271
 20
235.239303
 42
0.132252
 10
263.087136
 20
236.745026
  0
LWPOLYLINE
  5
61
330
18
100
AcDbEntity
  8
0
 62
     2
100
AcDbPolyline
 90
        5
 70
     0
 43
0.0
 10
258.983201
 20
229.707848
 10
258.983203
 20
223.572665
 42
-0.297141
 10
251.374459
 20
231.207393
 10
257.494067
 20
231.213569
 42
0.132252
 10
258.983203
 20
229.707846
  0
LWPOLYLINE
  5
62
330
18
100
AcDbEntity
  8
0
 62
     2
100
AcDbPolyline
 90
        5
 70
     0
 43
0.0
 10
263.087138
 20
229.707848
 10
263.087135
 20
223.572665
 42
0.297141
 10
270.695879
 20
231.207393
 10
264.576271
 20
231.213569
 42
-0.132252
 10
263.087136
 20
229.707846
  0
CIRCLE
  5
63
330
18
100
AcDbEntity
  8
0
 62
     2
100
AcDbCircle
 10
292.010936
 20
264.202203
 30
0.0
 40
1.5
  0
CIRCLE
  5
64
330
18
100
AcDbEntity
  8
0
 62
     2
100
AcDbCircle
 10
280.608801
 20
275.604261
 30
0.0
 40
1.5
  0
CIRCLE
  5
65
330
18
100
AcDbEntity
  8
0
 62
     2
100
AcDbCircle
 10
280.608878
 20
252.800067
 30
0.0
 40
1.5
  0
CIRCLE
  5
66
330
18
100
AcDbEntity
  8
0
 62
     2
100
AcDbCircle
 10
303.413071
 20
252.800144
 30
0.0
 40
1.5
  0
CIRCLE
  5
67
330
18
100
AcDbEntity
  8
0
 62
     2
100
AcDbCircle
 10
303.412994
 20
275.604338
 30
0.0
 40
1.5
  0
CIRCLE
  5
68
330
18
100
AcDbEntity
  8
0
 62
     2
100
AcDbCircle
 10
249.633111
 20
221.824301
 30
0.0
 40
1.5
  0
CIRCLE
  5
69
330
18
100
AcDbEntity
  8
0
 62
     2
100
AcDbCircle
 10
272.437305
 20
221.824378
 30
0.0
 40
1.5
  0
CIRCLE
  5
6A
330
18
100
AcDbEntity
  8
0
 62
     2
100
AcDbCircle
 10
272.437228
 20
244.628571
 30
0.0
 40
1.5
  0
CIRCLE
  5
6B
330
18
100
AcDbEntity
  8
0
 62
     2
100
AcDbCircle
 10
249.633034
 20
244.628494
 30
0.0
 40
1.5
  0
CIRCLE
  5
6C
330
18
100
AcDbEntity
  8
0
 62
     2
100
AcDbCircle
 10
303.413071
 20
190.848611
 30
0.0
 40
1.5
  0
CIRCLE
  5
6D
330
18
100
AcDbEntity
  8
0
 62
     2
100
AcDbCircle
 10
303.412994
 20
213.652805
 30
0.0
 40
1.5
  0
CIRCLE
  5
6E
330
18
100
AcDbEntity
  8
0
 62
     2
100
AcDbCircle
 10
280.608801
 20
213.652728
 30
0.0
 40
1.5
  0
CIRCLE
  5
6F
330
18
100
AcDbEntity
  8
0
 62
     2
100
AcDbCircle
 10
280.608878
 20
190.848534
 30
0.0
 40
1.5
  0
CIRCLE
  5
70
330
18
100
AcDbEntity
  8
0
 62
     2
100
AcDbCircle
 10
334.388761
 20
244.628571
 30
0.0
 40
1.5
  0
CIRCLE
  5
71
330
18
100
AcDbEntity
  8
0
 62
     2
100
AcDbCircle
 10
311.584567
 20
244.628494
 30
0.0
 40
1.5
  0
CIRCLE
  5
72
330
18
100
AcDbEntity
  8
0
 62
     2
100
AcDbCircle
 10
311.584644
 20
221.824301
 30
0.0
 40
1.5
  0
CIRCLE
  5
73
330
18
100
AcDbEntity
  8
0
 62
     2
100
AcDbCircle
 10
334.388838
 20
221.824378
 30
0.0
 40
1.5
  0
CIRCLE
  5
74
330
18
100
AcDbEntity
  8
0
 62
     2
100
AcDbCircle
 10
322.986703
 20
233.226436
 30
0.0
 40
8.0
  0
CIRCLE
  5
75
330
18
100
AcDbEntity
  8
0
 62
     2
100
AcDbCircle
 10
292.010936
 20
202.250669
 30
0.0
 40
8.0
  0
MTEXT
  5
76
330
18
100
AcDbEntity
  8
0
100
AcDbMText
 10
270.214169
 20
165.933752
 30
0.0
 40
2.5
 41
51.785714
 46
5.955837
 71
     1
 72
     1
  1
\pxqc;Bootom_Plate_For_Valve\PTransparent Acrylic 5mmX1PCS
 73
     1
 44
1.0
1001
ACAD
1000
ACAD_MTEXT_DEFINED_HEIGHT_BEGIN
1070
    46
1040
5.955837
1000
ACAD_MTEXT_DEFINED_HEIGHT_END
  0
LWPOLYLINE
  5
77
330
18
100
AcDbEntity
  8
0
100
AcDbPolyline
 90
        4
 70
     1
 43
0.0
 10
328.160598
 20
149.773561
 10
266.553455
 20
149.773561
 10
266.553455
 20
172.00518
 10
328.160598
 20
172.00518
  0
CIRCLE
  5
78
330
18
100
AcDbEntity
  8
0
 62
    30
100
AcDbCircle
 10
429.024182
 20
233.226436
 30
0.0
 40
55.0
  0
CIRCLE
  5
79
330
18
100
AcDbEntity
  8
0
 62
    30
100
AcDbCircle
 10
417.622047
 20
244.628494
 30
0.0
 40
1.5
  0
CIRCLE
  5
7A
330
18
100
AcDbEntity
  8
0
 62
    30
100
AcDbCircle
 10
417.622124
 20
221.824301
 30
0.0
 40
1.5
  0
CIRCLE
  5
7B
330
18
100
AcDbEntity
  8
0
 62
    30
100
AcDbCircle
 10
440.426317
 20
221.824378
 30
0.0
 40
1.5
  0
CIRCLE
  5
7C
330
18
100
AcDbEntity
  8
0
 62
    30
100
AcDbCircle
 10
440.42624
 20
244.628571
 30
0.0
 40
1.5
  0
CIRCLE
  5
7D
330
18
100
AcDbEntity
  8
0
 62
    30
100
AcDbCircle
 10
417.622047
 20
275.604261
 30
0.0
 40
1.5
  0
CIRCLE
  5
7E
330
18
100
AcDbEntity
  8
0
 62
    30
100
AcDbCircle
 10
417.622124
 20
252.800067
 30
0.0
 40
1.5
  0
CIRCLE
  5
7F
330
18
100
AcDbEntity
  8
0
 62
    30
100
AcDbCircle
 10
440.426317
 20
252.800144
 30
0.0
 40
1.5
  0
CIRCLE
  5
80
330
18
100
AcDbEntity
  8
0
 62
    30
100
AcDbCircle
 10
440.42624
 20
275.604338
 30
0.0
 40
1.5
  0
CIRCLE
  5
81
330
18
100
AcDbEntity
  8
0
 62
    30
100
AcDbCircle
 10
386.646357
 20
221.824301
 30
0.0
 40
1.5
  0
CIRCLE
  5
82
330
18
100
AcDbEntity
  8
0
 62
    30
100
AcDbCircle
 10
409.450551
 20
221.824378
 30
0.0
 40
1.5
  0
CIRCLE
  5
83
330
18
100
AcDbEntity
  8
0
 62
    30
100
AcDbCircle
 10
409.450474
 20
244.628571
 30
0.0
 40
1.5
  0
CIRCLE
  5
84
330
18
100
AcDbEntity
  8
0
 62
    30
100
AcDbCircle
 10
386.64628
 20
244.628494
 30
0.0
 40
1.5
  0
CIRCLE
  5
85
330
18
100
AcDbEntity
  8
0
 62
    30
100
AcDbCircle
 10
440.426317
 20
190.848611
 30
0.0
 40
1.5
  0
CIRCLE
  5
86
330
18
100
AcDbEntity
  8
0
 62
    30
100
AcDbCircle
 10
440.42624
 20
213.652805
 30
0.0
 40
1.5
  0
CIRCLE
  5
87
330
18
100
AcDbEntity
  8
0
 62
    30
100
AcDbCircle
 10
417.622047
 20
213.652728
 30
0.0
 40
1.5
  0
CIRCLE
  5
88
330
18
100
AcDbEntity
  8
0
 62
    30
100
AcDbCircle
 10
417.622124
 20
190.848534
 30
0.0
 40
1.5
  0
CIRCLE
  5
89
330
18
100
AcDbEntity
  8
0
 62
    30
100
AcDbCircle
 10
471.402007
 20
244.628571
 30
0.0
 40
1.5
  0
CIRCLE
  5
8A
330
18
100
AcDbEntity
  8
0
 62
    30
100
AcDbCircle
 10
448.597813
 20
244.628494
 30
0.0
 40
1.5
  0
CIRCLE
  5
8B
330
18
100
AcDbEntity
  8
0
 62
    30
100
AcDbCircle
 10
448.59789
 20
221.824301
 30
0.0
 40
1.5
  0
CIRCLE
  5
8C
330
18
100
AcDbEntity
  8
0
 62
    30
100
AcDbCircle
 10
471.402084
 20
221.824378
 30
0.0
 40
1.5
  0
CIRCLE
  5
8D
330
18
100
AcDbEntity
  8
0
 62
    30
100
AcDbCircle
 10
459.999949
 20
233.226436
 30
0.0
 40
8.0
  0
LWPOLYLINE
  5
8E
330
18
100
AcDbEntity
  8
0
 62
    30
100
AcDbPolyline
 90
       13
 70
     0
 43
0.0
 10
440.573424
 20
271.192553
 42
0.563643
 10
417.47494
 20
271.192553
 42
0.250073
 10
391.058065
 20
244.775678
 42
0.563643
 10
391.058065
 20
221.677194
 10
392.586904
 20
216.087713
 42
0.155481
 10
403.509927
 20
216.087713
 10
405.038766
 20
221.677194
 42
0.563643
 10
405.038766
 20
244.775678
 42
-0.169933
 10
417.47494
 20
257.211852
 42
0.563643
 10
440.573424
 20
257.211852
 10
446.162905
 20
258.740691
 42
0.155481
 10
446.162905
 20
269.663714
 10
440.573424
 20
271.192553
  0
MTEXT
  5
8F
330
18
100
AcDbEntity
  8
0
100
AcDbMText
 10
404.565864
 20
166.6778
 30
0.0
 40
2.5
 41
51.785714
 46
5.955837
 71
     1
 72
     1
  1
\pxqc;Middle_Plate_For_Valve\PTransparent Acrylic 10mmX1PCS\POR\P5mmX2PCS\PDepending On Capacity Of Your Laser
 73
     1
 44
1.0
1001
ACAD
1000
ACAD_MTEXT_DEFINED_HEIGHT_BEGIN
1070
    46
1040
5.955837
1000
ACAD_MTEXT_DEFINED_HEIGHT_END
  0
LWPOLYLINE
  5
90
330
18
100
AcDbEntity
  8
0
100
AcDbPolyline
 90
        4
 70
     1
 43
0.0
 10
464.863483
 20
136.796847
 10
395.488483
 20
136.796847
 10
395.488483
 20
172.00518
 10
464.863483
 20
172.00518
  0
CIRCLE
  5
91
330
18
100
AcDbEntity
  8
0
100
AcDbCircle
 10
170.167819
 20
233.226436
 30
0.0
 40
47.0
  0
CIRCLE
  5
92
330
18
100
AcDbEntity
  8
0
100
AcDbCircle
 10
170.167819
 20
233.226436
 30
0.0
 40
10.0
  0
CIRCLE
  5
93
330
18
100
AcDbEntity
  8
0
 62
     5
100
AcDbCircle
 10
170.167819
 20
233.226436
 30
0.0
 40
45.31468018296462
  0
CIRCLE
  5
94
330
18
100
AcDbEntity
  8
0
100
AcDbCircle
 10
158.765684
 20
244.628494
 30
0.0
 40
1.5
  0
CIRCLE
  5
95
330
18
100
AcDbEntity
  8
0
100
AcDbCircle
 10
158.765761
 20
221.824301
 30
0.0
 40
1.5
  0
CIRCLE
  5
96
330
18
100
AcDbEntity
  8
0
100
AcDbCircle
 10
181.569954
 20
221.824378
 30
0.0
 40
1.5
  0
CIRCLE
  5
97
330
18
100
AcDbEntity
  8
0
100
AcDbCircle
 10
181.569877
 20
244.628571
 30
0.0
 40
1.5
  0
CIRCLE
  5
98
330
18
100
AcDbEntity
  8
0
100
AcDbCircle
 10
158.765684
 20
275.604261
 30
0.0
 40
1.5
  0
CIRCLE
  5
99
330
18
100
AcDbEntity
  8
0
100
AcDbCircle
 10
158.765761
 20
252.800067
 30
0.0
 40
1.5
  0
CIRCLE
  5
9A
330
18
100
AcDbEntity
  8
0
100
AcDbCircle
 10
181.569954
 20
252.800144
 30
0.0
 40
1.5
  0
CIRCLE
  5
9B
330
18
100
AcDbEntity
  8
0
100
AcDbCircle
 10
181.569877
 20
275.604338
 30
0.0
 40
1.5
  0
CIRCLE
  5
9C
330
18
100
AcDbEntity
  8
0
100
AcDbCircle
 10
139.192052
 20
233.226436
 30
0.0
 40
10.0
  0
CIRCLE
  5
9D
330
18
100
AcDbEntity
  8
0
100
AcDbCircle
 10
127.789994
 20
221.824301
 30
0.0
 40
1.5
  0
CIRCLE
  5
9E
330
18
100
AcDbEntity
  8
0
100
AcDbCircle
 10
150.594188
 20
221.824378
 30
0.0
 40
1.5
  0
CIRCLE
  5
9F
330
18
100
AcDbEntity
  8
0
100
AcDbCircle
 10
150.594111
 20
244.628571
 30
0.0
 40
1.5
  0
CIRCLE
  5
A0
330
18
100
AcDbEntity
  8
0
100
AcDbCircle
 10
127.789917
 20
244.628494
 30
0.0
 40
1.5
  0
CIRCLE
  5
A1
330
18
100
AcDbEntity
  8
0
100
AcDbCircle
 10
181.569954
 20
190.848611
 30
0.0
 40
1.5
  0
CIRCLE
  5
A2
330
18
100
AcDbEntity
  8
0
100
AcDbCircle
 10
181.569877
 20
213.652805
 30
0.0
 40
1.5
  0
CIRCLE
  5
A3
330
18
100
AcDbEntity
  8
0
100
AcDbCircle
 10
158.765684
 20
213.652728
 30
0.0
 40
1.5
  0
CIRCLE
  5
A4
330
18
100
AcDbEntity
  8
0
100
AcDbCircle
 10
158.765761
 20
190.848534
 30
0.0
 40
1.5
  0
CIRCLE
  5
A5
330
18
100
AcDbEntity
  8
0
100
AcDbCircle
 10
201.143586
 20
233.226436
 30
0.0
 40
8.0
  0
CIRCLE
  5
A6
330
18
100
AcDbEntity
  8
0
100
AcDbCircle
 10
212.545644
 20
244.628571
 30
0.0
 40
1.5
  0
CIRCLE
  5
A7
330
18
100
AcDbEntity
  8
0
100
AcDbCircle
 10
189.74145
 20
244.628494
 30
0.0
 40
1.5
  0
CIRCLE
  5
A8
330
18
100
AcDbEntity
  8
0
100
AcDbCircle
 10
189.741527
 20
221.824301
 30
0.0
 40
1.5
  0
CIRCLE
  5
A9
330
18
100
AcDbEntity
  8
0
100
AcDbCircle
 10
212.545721
 20
221.824378
 30
0.0
 40
1.5
  0
CIRCLE
  5
AA
330
18
100
AcDbEntity
  8
0
100
AcDbCircle
 10
170.167819
 20
202.250669
 30
0.0
 40
8.0
  0
CIRCLE
  5
AB
330
18
100
AcDbEntity
  8
0
100
AcDbCircle
 10
170.167819
 20
264.202203
 30
0.0
 40
4.0
  0
MTEXT
  5
AC
330
18
100
AcDbEntity
  8
0
100
AcDbMText
 10
144.17422
 20
166.677799
 30
0.0
 40
2.5
 41
51.785714
 46
5.955837
 71
     1
 72
     1
  1
\pxqc;Mill_Drill_Pattern_For_Lid\PSunpet 2L Jar \P1PCS
 73
     1
 44
1.0
1001
ACAD
1000
ACAD_MTEXT_DEFINED_HEIGHT_BEGIN
1070
    46
1040
5.955837
1000
ACAD_MTEXT_DEFINED_HEIGHT_END
  0
LWPOLYLINE
  5
AD
330
18
100
AcDbEntity
  8
0
100
AcDbPolyline
 90
        4
 70
     1
 43
0.0
 10
204.471839
 20
152.689704
 10
135.096839
 20
152.689704
 10
135.096839
 20
172.00518
 10
204.471839
 20
172.00518
  0
CIRCLE
  5
AE
330
18
100
AcDbEntity
  8
0
100
AcDbCircle
 10
689.651512
 20
233.226436
 30
0.0
 40
10.0
  0
CIRCLE
  5
AF
330
18
100
AcDbEntity
  8
0
100
AcDbCircle
 10
678.249377
 20
244.628494
 30
0.0
 40
1.5
  0
CIRCLE
  5
B0
330
18
100
AcDbEntity
  8
0
100
AcDbCircle
 10
678.249454
 20
221.824301
 30
0.0
 40
1.5
  0
CIRCLE
  5
B1
330
18
100
AcDbEntity
  8
0
100
AcDbCircle
 10
701.053647
 20
221.824378
 30
0.0
 40
1.5
  0
CIRCLE
  5
B2
330
18
100
AcDbEntity
  8
0
100
AcDbCircle
 10
701.05357
 20
244.628571
 30
0.0
 40
1.5
  0
CIRCLE
  5
B3
330
18
100
AcDbEntity
  8
0
100
AcDbCircle
 10
678.249454
 20
252.800067
 30
0.0
 40
1.5
  0
CIRCLE
  5
B4
330
18
100
AcDbEntity
  8
0
100
AcDbCircle
 10
701.053647
 20
252.800144
 30
0.0
 40
1.5
  0
CIRCLE
  5
B5
330
18
100
AcDbEntity
  8
0
100
AcDbCircle
 10
670.077881
 20
221.824378
 30
0.0
 40
1.5
  0
CIRCLE
  5
B6
330
18
100
AcDbEntity
  8
0
100
AcDbCircle
 10
670.077804
 20
244.628571
 30
0.0
 40
1.5
  0
CIRCLE
  5
B7
330
18
100
AcDbEntity
  8
0
100
AcDbCircle
 10
701.05357
 20
213.652805
 30
0.0
 40
1.5
  0
CIRCLE
  5
B8
330
18
100
AcDbEntity
  8
0
100
AcDbCircle
 10
678.249377
 20
213.652728
 30
0.0
 40
1.5
  0
CIRCLE
  5
B9
330
18
100
AcDbEntity
  8
0
100
AcDbCircle
 10
709.225143
 20
244.628494
 30
0.0
 40
1.5
  0
CIRCLE
  5
BA
330
18
100
AcDbEntity
  8
0
100
AcDbCircle
 10
709.22522
 20
221.824301
 30
0.0
 40
1.5
  0
LWPOLYLINE
  5
BB
330
18
100
AcDbEntity
  8
0
 62
     0
100
AcDbPolyline
 90
        4
 70
     0
 43
0.0
 10
656.675745
 20
243.024395
 42
0.300614
 10
648.877786
 20
235.226436
 10
656.675745
 20
235.226436
 10
656.675166
 20
243.024277
  0
LWPOLYLINE
  5
BC
330
18
100
AcDbEntity
  8
0
 62
     0
100
AcDbPolyline
 90
        4
 70
     0
 43
0.0
 10
656.675745
 20
223.428477
 42
-0.300614
 10
648.877786
 20
231.226436
 10
656.675745
 20
231.226436
 10
656.675745
 20
223.428477
  0
LWPOLYLINE
  5
BD
330
18
100
AcDbEntity
  8
0
 62
     0
100
AcDbPolyline
 90
        3
 70
     0
 43
0.0
 10
660.675745
 20
223.428477
 42
0.816497
 10
660.675739
 20
243.024396
 10
660.675755
 20
223.428479
  0
CIRCLE
  5
BE
330
18
100
AcDbEntity
  8
0
100
AcDbCircle
 10
720.627279
 20
233.226436
 30
0.0
 40
8.0
  0
CIRCLE
  5
BF
330
18
100
AcDbEntity
  8
0
100
AcDbCircle
 10
689.651512
 20
202.250669
 30
0.0
 40
8.0
  0
LWPOLYLINE
  5
C0
330
18
100
AcDbEntity
  8
0
 62
     0
100
AcDbPolyline
 90
       17
 70
     0
 43
0.0
 10
674.258081
 20
190.584875
 42
-1.39781
 10
681.569461
 20
188.617683
 42
0.089856
 10
697.733442
 20
188.617672
 42
-1.397813
 10
705.04486
 20
190.584707
 42
0.223076
 10
732.293073
 20
217.833005
 42
-1.39781
 10
734.260265
 20
225.144385
 42
0.089856
 10
734.260276
 20
241.308366
 42
-1.397813
 10
732.293241
 20
248.619784
 42
0.223076
 10
705.044943
 20
275.867997
 42
-1.39781
 10
697.733563
 20
277.835189
 42
0.089856
 10
681.569582
 20
277.8352
 42
-1.397813
 10
674.258164
 20
275.868165
 42
0.223076
 10
647.009951
 20
248.619867
 42
-1.39781
 10
645.042759
 20
241.308487
 42
0.089856
 10
645.042748
 20
225.144506
 42
-1.397813
 10
647.009783
 20
217.833088
 42
0.223076
 10
674.258081
 20
190.584875
  0
MTEXT
  5
C1
330
18
100
AcDbEntity
  8
0
100
AcDbMText
 10
666.066202
 20
166.677799
 30
0.0
 40
2.5
 41
51.785714
 46
5.955837
 71
     1
 72
     1
  1
\pxqc;Net_Retainer\PTransparent Acrylic \P2mmX1PCS
 73
     1
 44
1.0
1001
ACAD
1000
ACAD_MTEXT_DEFINED_HEIGHT_BEGIN
1070
    46
1040
5.955837
1000
ACAD_MTEXT_DEFINED_HEIGHT_END
  0
LWPOLYLINE
  5
C2
330
18
100
AcDbEntity
  8
0
100
AcDbPolyline
 90
        4
 70
     1
 43
0.0
 10
726.363821
 20
151.618275
 10
656.988821
 20
151.618275
 10
656.988821
 20
172.00518
 10
726.363821
 20
172.00518
  0
CIRCLE
  5
C3
330
18
100
AcDbEntity
  8
0
 62
     4
100
AcDbCircle
 10
567.404476
 20
233.226433
 30
0.0
 40
55.0
  0
CIRCLE
  5
C4
330
18
100
AcDbEntity
  8
0
 62
     4
100
AcDbCircle
 10
598.380243
 20
233.226433
 30
0.0
 40
8.0
  0
CIRCLE
  5
C5
330
18
100
AcDbEntity
  8
0
 62
     4
100
AcDbCircle
 10
567.404476
 20
233.226433
 30
0.0
 40
2.25
  0
LWPOLYLINE
  5
C6
330
18
100
AcDbEntity
  8
0
 62
     4
100
AcDbPolyline
 90
        5
 70
     0
 43
0.0
 10
565.352507
 20
236.745021
 10
565.35251
 20
242.880204
 42
0.297141
 10
557.743766
 20
235.245476
 10
563.863374
 20
235.2393
 42
-0.132252
 10
565.35251
 20
236.745023
  0
LWPOLYLINE
  5
C7
330
18
100
AcDbEntity
  8
0
 62
     4
100
AcDbPolyline
 90
        5
 70
     0
 43
0.0
 10
569.456445
 20
236.745021
 10
569.456442
 20
242.880204
 42
-0.297141
 10
577.065186
 20
235.245476
 10
570.945578
 20
235.2393
 42
0.132252
 10
569.456442
 20
236.745023
  0
LWPOLYLINE
  5
C8
330
18
100
AcDbEntity
  8
0
 62
     4
100
AcDbPolyline
 90
        5
 70
     0
 43
0.0
 10
565.352507
 20
229.707845
 10
565.35251
 20
223.572662
 42
-0.297141
 10
557.743766
 20
231.20739
 10
563.863374
 20
231.213566
 42
0.132252
 10
565.35251
 20
229.707843
  0
LWPOLYLINE
  5
C9
330
18
100
AcDbEntity
  8
0
 62
     4
100
AcDbPolyline
 90
        5
 70
     0
 43
0.0
 10
569.456445
 20
229.707845
 10
569.456442
 20
223.572662
 42
0.297141
 10
577.065186
 20
231.20739
 10
570.945578
 20
231.213566
 42
-0.132252
 10
569.456442
 20
229.707843
  0
CIRCLE
  5
CA
330
18
100
AcDbEntity
  8
0
 62
     4
100
AcDbCircle
 10
556.002341
 20
244.628491
 30
0.0
 40
1.5
  0
CIRCLE
  5
CB
330
18
100
AcDbEntity
  8
0
 62
     4
100
AcDbCircle
 10
556.002418
 20
221.824298
 30
0.0
 40
1.5
  0
CIRCLE
  5
CC
330
18
100
AcDbEntity
  8
0
 62
     4
100
AcDbCircle
 10
578.806611
 20
221.824375
 30
0.0
 40
1.5
  0
CIRCLE
  5
CD
330
18
100
AcDbEntity
  8
0
 62
     4
100
AcDbCircle
 10
578.806534
 20
244.628568
 30
0.0
 40
1.5
  0
LWPOLYLINE
  5
CE
330
18
100
AcDbEntity
  8
0
 62
     4
100
AcDbPolyline
 90
        5
 70
     0
 43
0.0
 10
534.376741
 20
236.745021
 10
534.376743
 20
242.880204
 42
0.297141
 10
526.767999
 20
235.245476
 10
532.887607
 20
235.2393
 42
-0.132252
 10
534.376743
 20
236.745023
  0
LWPOLYLINE
  5
CF
330
18
100
AcDbEntity
  8
0
 62
     4
100
AcDbPolyline
 90
        5
 70
     0
 43
0.0
 10
538.480678
 20
236.745021
 10
538.480675
 20
242.880204
 42
-0.297141
 10
546.089419
 20
235.245476
 10
539.969811
 20
235.2393
 42
0.132252
 10
538.480676
 20
236.745023
  0
LWPOLYLINE
  5
D0
330
18
100
AcDbEntity
  8
0
 62
     4
100
AcDbPolyline
 90
        5
 70
     0
 43
0.0
 10
534.376741
 20
229.707845
 10
534.376743
 20
223.572662
 42
-0.297141
 10
526.767999
 20
231.20739
 10
532.887607
 20
231.213566
 42
0.132252
 10
534.376743
 20
229.707843
  0
LWPOLYLINE
  5
D1
330
18
100
AcDbEntity
  8
0
 62
     4
100
AcDbPolyline
 90
        5
 70
     0
 43
0.0
 10
538.480678
 20
229.707845
 10
538.480675
 20
223.572662
 42
0.297141
 10
546.089419
 20
231.20739
 10
539.969811
 20
231.213566
 42
-0.132252
 10
538.480676
 20
229.707843
  0
CIRCLE
  5
D2
330
18
100
AcDbEntity
  8
0
 62
     4
100
AcDbCircle
 10
536.428709
 20
233.226433
 30
0.0
 40
1.5
  0
LWPOLYLINE
  5
D3
330
18
100
AcDbEntity
  8
0
 62
     4
100
AcDbPolyline
 90
        5
 70
     0
 43
0.0
 10
563.885888
 20
262.150231
 10
557.750705
 20
262.150234
 42
0.297141
 10
565.385433
 20
254.54149
 10
565.391609
 20
260.661098
 42
-0.132252
 10
563.885886
 20
262.150233
  0
LWPOLYLINE
  5
D4
330
18
100
AcDbEntity
  8
0
 62
     4
100
AcDbPolyline
 90
        5
 70
     0
 43
0.0
 10
563.885888
 20
266.254168
 10
557.750705
 20
266.254166
 42
-0.297141
 10
565.385433
 20
273.86291
 10
565.391609
 20
267.743302
 42
0.132252
 10
563.885886
 20
266.254166
  0
LWPOLYLINE
  5
D5
330
18
100
AcDbEntity
  8
0
 62
     4
100
AcDbPolyline
 90
        5
 70
     0
 43
0.0
 10
570.923064
 20
262.150231
 10
577.058247
 20
262.150234
 42
-0.297141
 10
569.423519
 20
254.54149
 10
569.417343
 20
260.661098
 42
0.132252
 10
570.923066
 20
262.150233
  0
LWPOLYLINE
  5
D6
330
18
100
AcDbEntity
  8
0
 62
     4
100
AcDbPolyline
 90
        5
 70
     0
 43
0.0
 10
570.923064
 20
266.254168
 10
577.058247
 20
266.254166
 42
0.297141
 10
569.423519
 20
273.86291
 10
569.417343
 20
267.743302
 42
-0.132252
 10
570.923066
 20
266.254166
  0
CIRCLE
  5
D7
330
18
100
AcDbEntity
  8
0
 62
     4
100
AcDbCircle
 10
567.404476
 20
264.2022
 30
0.0
 40
2.25
  0
CIRCLE
  5
D8
330
18
100
AcDbEntity
  8
0
 62
     4
100
AcDbCircle
 10
556.002341
 20
275.604258
 30
0.0
 40
1.5
  0
CIRCLE
  5
D9
330
18
100
AcDbEntity
  8
0
 62
     4
100
AcDbCircle
 10
556.002418
 20
252.800064
 30
0.0
 40
1.5
  0
CIRCLE
  5
DA
330
18
100
AcDbEntity
  8
0
 62
     4
100
AcDbCircle
 10
578.806611
 20
252.800141
 30
0.0
 40
1.5
  0
CIRCLE
  5
DB
330
18
100
AcDbEntity
  8
0
 62
     4
100
AcDbCircle
 10
578.806534
 20
275.604335
 30
0.0
 40
1.5
  0
CIRCLE
  5
DC
330
18
100
AcDbEntity
  8
0
 62
     4
100
AcDbCircle
 10
525.026651
 20
221.824298
 30
0.0
 40
1.5
  0
CIRCLE
  5
DD
330
18
100
AcDbEntity
  8
0
 62
     4
100
AcDbCircle
 10
547.830845
 20
221.824375
 30
0.0
 40
1.5
  0
CIRCLE
  5
DE
330
18
100
AcDbEntity
  8
0
 62
     4
100
AcDbCircle
 10
547.830768
 20
244.628568
 30
0.0
 40
1.5
  0
CIRCLE
  5
DF
330
18
100
AcDbEntity
  8
0
 62
     4
100
AcDbCircle
 10
525.026574
 20
244.628491
 30
0.0
 40
1.5
  0
CIRCLE
  5
E0
330
18
100
AcDbEntity
  8
0
 62
     4
100
AcDbCircle
 10
578.806611
 20
190.848608
 30
0.0
 40
1.5
  0
CIRCLE
  5
E1
330
18
100
AcDbEntity
  8
0
 62
     4
100
AcDbCircle
 10
578.806534
 20
213.652802
 30
0.0
 40
1.5
  0
CIRCLE
  5
E2
330
18
100
AcDbEntity
  8
0
 62
     4
100
AcDbCircle
 10
556.002341
 20
213.652725
 30
0.0
 40
1.5
  0
CIRCLE
  5
E3
330
18
100
AcDbEntity
  8
0
 62
     4
100
AcDbCircle
 10
556.002418
 20
190.848531
 30
0.0
 40
1.5
  0
CIRCLE
  5
E4
330
18
100
AcDbEntity
  8
0
 62
     4
100
AcDbCircle
 10
609.782301
 20
244.628568
 30
0.0
 40
1.5
  0
CIRCLE
  5
E5
330
18
100
AcDbEntity
  8
0
 62
     4
100
AcDbCircle
 10
586.978107
 20
244.628491
 30
0.0
 40
1.5
  0
CIRCLE
  5
E6
330
18
100
AcDbEntity
  8
0
 62
     4
100
AcDbCircle
 10
586.978184
 20
221.824298
 30
0.0
 40
1.5
  0
CIRCLE
  5
E7
330
18
100
AcDbEntity
  8
0
 62
     4
100
AcDbCircle
 10
609.782378
 20
221.824375
 30
0.0
 40
1.5
  0
CIRCLE
  5
E8
330
18
100
AcDbEntity
  8
0
 62
     4
100
AcDbCircle
 10
567.404476
 20
202.250666
 30
0.0
 40
8.0
  0
MTEXT
  5
E9
330
18
100
AcDbEntity
  8
0
100
AcDbMText
 10
538.836032
 20
169.35637
 30
0.0
 40
2.5
 41
63.189484
 46
5.955837
 71
     1
 72
     1
  1
\pxqc;Top_Plate_For_Valve\PTransparent Acrylic 5mmX1PCS\PNames Are To Be Engraved\P
 73
     1
 44
1.0
1001
ACAD
1000
ACAD_MTEXT_DEFINED_HEIGHT_BEGIN
1070
    46
1040
5.955837
1000
ACAD_MTEXT_DEFINED_HEIGHT_END
  0
LWPOLYLINE
  5
EA
330
18
100
AcDbEntity
  8
0
100
AcDbPolyline
 90
        4
 70
     1
 43
0.0
 10
603.895556
 20
150.566687
 10
535.874723
 20
150.566687
 10
535.874723
 20
172.00518
 10
603.895556
 20
172.00518
  0
MTEXT
  5
EB
330
18
100
AcDbEntity
  8
0
100
AcDbMText
 10
554.183582
 20
185.517052
 30
0.0
 40
4.0
 41
26.314815
 46
6.76455
 71
     1
 72
     1
  1
\pxqc;{\fArial|b1|i0|c0|p34;\C6;PEEP}
 73
     1
 44
1.0
1001
ACAD
1000
ACAD_MTEXT_DEFINED_HEIGHT_BEGIN
1070
    46
1040
6.76455
1000
ACAD_MTEXT_DEFINED_HEIGHT_END
  0
MTEXT
  5
EC
330
18
100
AcDbEntity
  8
0
100
AcDbMText
 10
523.314534
 20
213.826576
 30
0.0
 40
4.0
 41
26.314815
 46
6.76455
 71
     1
 72
     1
  1
\pxqc;{\fArial|b1|i0|c0|p34;\C6;INHALE}
 73
     1
 44
1.0
1001
ACAD
1000
ACAD_MTEXT_DEFINED_HEIGHT_BEGIN
1070
    46
1040
6.76455
1000
ACAD_MTEXT_DEFINED_HEIGHT_END
  0
MTEXT
  5
ED
330
18
100
AcDbEntity
  8
0
100
AcDbMText
 10
585.71394
 20
253.959025
 30
0.0
 40
4.0
 41
26.314815
 46
6.76455
 71
     1
 72
     1
  1
\pxqc;{\fArial|b1|i0|c0|p34;\C6;EXHALE}
 11
0.7071067811865476
 21
0.7071067811865475
 31
0.0
 73
     1
 44
1.0
1001
ACAD
1000
ACAD_MTEXT_DEFINED_HEIGHT_BEGIN
1070
    46
1040
6.76455
1000
ACAD_MTEXT_DEFINED_HEIGHT_END
  0
LWPOLYLINE
  5
EE
330
18
100
AcDbEntity
  8
0
 62
     6
100
AcDbPolyline
 90
        3
 70
     1
 43
0.0
 10
584.873614
 20
254.996527
 10
583.746512
 20
248.846929
 10
589.63577
 20
250.945629
  0
MTEXT
  5
EF
330
18
100
AcDbEntity
  8
0
100
AcDbMText
 10
553.971562
 20
283.990034
 30
0.0
 40
4.0
 41
26.314815
 46
5.0625
 71
     1
 72
     1
  1
\pxqc;{\fArial|b1|i0|c0|p34;\C6;VENTURI}
 73
     1
 44
1.0
1001
ACAD
1000
ACAD_MTEXT_DEFINED_HEIGHT_BEGIN
1070
    46
1040
5.0625
1000
ACAD_MTEXT_DEFINED_HEIGHT_END
  0
MTEXT
  5
F0
330
18
100
AcDbEntity
  8
0
100
AcDbMText
 10
611.494425
 20
213.826576
 30
0.0
 40
4.0
 41
26.314815
 46
6.76455
 71
     3
 72
     1
  1
\pxqc;{\fArial|b1|i0|c0|p34;\C6;AIRBAG}
 73
     1
 44
1.0
1001
ACAD
1000
ACAD_MTEXT_DEFINED_HEIGHT_BEGIN
1070
    46
1040
6.76455
1000
ACAD_MTEXT_DEFINED_HEIGHT_END
  0
LWPOLYLINE
  5
F1
330
18
100
AcDbEntity
  8
0
100
AcDbPolyline
 90
        4
 70
     1
 43
0.0
 10
62.612588
 20
328.596383
 10
787.783652
 20
328.596383
 10
787.783652
 20
-148.01326
 10
62.612588
 20
-148.01326
  0
MTEXT
  5
F2
330
18
100
AcDbEntity
  8
0
 62
     1
100
AcDbMText
 10
312.442944
 20
88.088073
 30
0.0
 40
10.0
 41
144.23474
 46
20.049023
 71
     1
 72
     1
  1
Rebreather_TMH_Clinical_Test
 73
     1
 44
1.0
1001
ACAD
1000
ACAD_MTEXT_DEFINED_HEIGHT_BEGIN
1070
    46
1040
20.049023
1000
ACAD_MTEXT_DEFINED_HEIGHT_END
  0
LWPOLYLINE
  5
F3
330
18
100
AcDbEntity
  8
0
100
AcDbPolyline
 90
        4
 70
     1
 43
0.0
 10
577.334163
 20
65.53227
 10
292.54339
 20
65.53227
 10
292.54339
 20
98.478698
 10
577.334163
 20
98.478698
  0
LWPOLYLINE
  5
F4
330
18
100
AcDbEntity
  8
0
 62
    30
100
AcDbPolyline
 90
        5
 70
     0
 43
0.0
 10
422.122047
 20
225.990378
 10
422.122047
 20
209.486726
 42
2.497207
 10
435.926317
 20
209.486726
 10
435.926317
 20
225.990378
 42
2.497207
 10
422.122047
 20
225.990378
  0
CIRCLE
  5
F5
330
18
100
AcDbEntity
  8
0
 62
    30
100
AcDbCircle
 10
433.301865
 20
3.992958
 30
0.0
 40
1.5
  0
CIRCLE
  5
F6
330
18
100
AcDbEntity
  8
0
 62
    30
100
AcDbCircle
 10
420.376436
 20
-3.469542
 30
0.0
 40
1.5
  0
CIRCLE
  5
F7
330
18
100
AcDbEntity
  8
0
 62
    30
100
AcDbCircle
 10
420.376436
 20
-18.394542
 30
0.0
 40
1.5
  0
CIRCLE
  5
F8
330
18
100
AcDbEntity
  8
0
 62
    30
100
AcDbCircle
 10
433.301865
 20
-25.857042
 30
0.0
 40
1.5
  0
CIRCLE
  5
F9
330
18
100
AcDbEntity
  8
0
 62
    30
100
AcDbCircle
 10
433.301865
 20
3.992958
 30
0.0
 40
1.5
  0
CIRCLE
  5
FA
330
18
100
AcDbEntity
  8
0
 62
    30
100
AcDbCircle
 10
420.376436
 20
-3.469542
 30
0.0
 40
1.5
  0
CIRCLE
  5
FB
330
18
100
AcDbEntity
  8
0
 62
    30
100
AcDbCircle
 10
420.376436
 20
-18.394542
 30
0.0
 40
1.5
  0
CIRCLE
  5
FC
330
18
100
AcDbEntity
  8
0
 62
    30
100
AcDbCircle
 10
433.301865
 20
-25.857042
 30
0.0
 40
1.5
  0
CIRCLE
  5
FD
330
18
100
AcDbEntity
  8
0
 62
    30
100
AcDbCircle
 10
446.227294
 20
-3.466523
 30
0.0
 40
1.5
  0
CIRCLE
  5
FE
330
18
100
AcDbEntity
  8
0
 62
    30
100
AcDbCircle
 10
446.227294
 20
-18.389546
 30
0.0
 40
1.5
  0
LWPOLYLINE
  5
FF
330
18
100
AcDbEntity
  8
0
 62
    30
100
AcDbPolyline
 90
       15
 70
     0
 43
0.0
 10
442.301649
 20
-23.928034
 42
0.10094
 10
447.392775
 20
-22.889654
 10
444.227294
 20
-20.609198
 10
444.227294
 20
-18.389546
 42
-0.414214
 10
446.227294
 20
-16.389546
 10
454.098754
 20
-16.389546
 42
0.220248
 10
454.098754
 20
-5.466523
 10
446.227294
 20
-5.466523
 42
-0.414214
 10
444.227294
 20
-3.466523
 10
444.227294
 20
-1.24687
 10
447.392775
 20
1.033586
 42
0.10094
 10
442.301649
 20
2.071966
 10
433.301865
 20
2.071966
 42
1.0
 10
433.301865
 20
-23.928034
 10
442.301641
 20
-23.928034
  0
LINE
  5
100
330
18
100
AcDbEntity
  8
0
100
AcDbLine
 10
455.301641
 20
-10.928034
 30
0.0
 11
455.301641
 21
-10.928034
 31
0.0
  0
LWPOLYLINE
  5
101
330
18
100
AcDbEntity
  8
0
 62
    30
100
AcDbPolyline
 90
        6
 70
     1
 43
0.0
 10
442.301884
 20
-33.403189
 42
1.00001
 10
442.300937
 20
11.549205
 10
432.229446
 20
11.545826
 10
413.301865
 20
0.617983
 10
413.301865
 20
-22.476028
 10
432.230283
 20
-33.404355
  0
MTEXT
  5
102
330
18
100
AcDbEntity
  8
0
100
AcDbMText
 10
412.275411
 20
-44.75728
 30
0.0
 40
2.5
 41
51.785714
 46
5.955837
 71
     1
 72
     1
  1
\pxqc;Standalon_Valve_Spacer_Plate\PTransparent Acrylic \P5mmX2PCS
 73
     1
 44
1.0
1001
ACAD
1000
ACAD_MTEXT_DEFINED_HEIGHT_BEGIN
1070
    46
1040
5.955837
1000
ACAD_MTEXT_DEFINED_HEIGHT_END
  0
LWPOLYLINE
  5
103
330
18
100
AcDbEntity
  8
0
100
AcDbPolyline
 90
        4
 70
     1
 43
0.0
 10
472.57303
 20
-59.816804
 10
403.19803
 20
-59.816804
 10
403.19803
 20
-39.429899
 10
472.57303
 20
-39.429899
  0
CIRCLE
  5
104
330
18
100
AcDbEntity
  8
0
 62
     2
100
AcDbCircle
 10
352.306754
 20
-18.390534
 30
0.0
 40
1.5
  0
CIRCLE
  5
105
330
18
100
AcDbEntity
  8
0
 62
     2
100
AcDbCircle
 10
352.306754
 20
-3.465534
 30
0.0
 40
1.5
  0
CIRCLE
  5
106
330
18
100
AcDbEntity
  8
0
 62
     2
100
AcDbCircle
 10
339.381324
 20
3.996966
 30
0.0
 40
1.5
  0
CIRCLE
  5
107
330
18
100
AcDbEntity
  8
0
 62
     2
100
AcDbCircle
 10
326.455895
 20
-3.465534
 30
0.0
 40
1.5
  0
CIRCLE
  5
108
330
18
100
AcDbEntity
  8
0
 62
     2
100
AcDbCircle
 10
326.455895
 20
-18.390534
 30
0.0
 40
1.5
  0
CIRCLE
  5
109
330
18
100
AcDbEntity
  8
0
 62
     2
100
AcDbCircle
 10
339.381324
 20
-25.853034
 30
0.0
 40
1.5
  0
CIRCLE
  5
10A
330
18
100
AcDbEntity
  8
0
 62
     2
100
AcDbCircle
 10
339.381324
 20
-10.928034
 30
0.0
 40
2.25
  0
CIRCLE
  5
10B
330
18
100
AcDbEntity
  8
0
 62
     2
100
AcDbCircle
 10
352.306754
 20
-18.390534
 30
0.0
 40
1.5
  0
CIRCLE
  5
10C
330
18
100
AcDbEntity
  8
0
 62
     2
100
AcDbCircle
 10
352.306754
 20
-3.465534
 30
0.0
 40
1.5
  0
CIRCLE
  5
10D
330
18
100
AcDbEntity
  8
0
 62
     2
100
AcDbCircle
 10
339.381324
 20
3.996966
 30
0.0
 40
1.5
  0
CIRCLE
  5
10E
330
18
100
AcDbEntity
  8
0
 62
     2
100
AcDbCircle
 10
326.455895
 20
-3.465534
 30
0.0
 40
1.5
  0
CIRCLE
  5
10F
330
18
100
AcDbEntity
  8
0
 62
     2
100
AcDbCircle
 10
326.455895
 20
-18.390534
 30
0.0
 40
1.5
  0
CIRCLE
  5
110
330
18
100
AcDbEntity
  8
0
 62
     2
100
AcDbCircle
 10
339.381324
 20
-25.853034
 30
0.0
 40
1.5
  0
LWPOLYLINE
  5
111
330
18
100
AcDbEntity
  8
0
 62
     2
100
AcDbPolyline
 90
        5
 70
     0
 43
0.0
 10
337.329356
 20
-7.409446
 10
337.329358
 20
-1.274264
 42
0.297141
 10
329.720614
 20
-8.908991
 10
335.840222
 20
-8.915167
 42
-0.132252
 10
337.329358
 20
-7.409445
  0
LWPOLYLINE
  5
112
330
18
100
AcDbEntity
  8
0
 62
     2
100
AcDbPolyline
 90
        5
 70
     0
 43
0.0
 10
341.433293
 20
-7.409446
 10
341.43329
 20
-1.274264
 42
-0.297141
 10
349.042034
 20
-8.908991
 10
342.922426
 20
-8.915167
 42
0.132252
 10
341.433291
 20
-7.409445
  0
LWPOLYLINE
  5
113
330
18
100
AcDbEntity
  8
0
 62
     2
100
AcDbPolyline
 90
        5
 70
     0
 43
0.0
 10
337.329356
 20
-14.446622
 10
337.329358
 20
-20.581805
 42
-0.297141
 10
329.720614
 20
-12.947077
 10
335.840222
 20
-12.940902
 42
0.132252
 10
337.329358
 20
-14.446624
  0
LWPOLYLINE
  5
114
330
18
100
AcDbEntity
  8
0
 62
     2
100
AcDbPolyline
 90
        5
 70
     0
 43
0.0
 10
341.433293
 20
-14.446622
 10
341.43329
 20
-20.581805
 42
0.297141
 10
349.042034
 20
-12.947077
 10
342.922426
 20
-12.940902
 42
-0.132252
 10
341.433291
 20
-14.446624
  0
LWPOLYLINE
  5
115
330
18
100
AcDbEntity
  8
0
 62
     2
100
AcDbPolyline
 90
        6
 70
     1
 43
0.0
 10
348.381343
 20
-33.403189
 42
1.00001
 10
348.380396
 20
11.549205
 10
338.308905
 20
11.545826
 10
319.381324
 20
0.617983
 10
319.381324
 20
-22.476028
 10
338.309743
 20
-33.404355
  0
MTEXT
  5
116
330
18
100
AcDbEntity
  8
0
100
AcDbMText
 10
318.181385
 20
-44.75728
 30
0.0
 40
2.5
 41
51.785714
 46
5.955837
 71
     1
 72
     1
  1
\pxqc;Standalon_Valve_Base_Plate\PTransparent Acrylic \P2mmX1PCS
 73
     1
 44
1.0
1001
ACAD
1000
ACAD_MTEXT_DEFINED_HEIGHT_BEGIN
1070
    46
1040
5.955837
1000
ACAD_MTEXT_DEFINED_HEIGHT_END
  0
LWPOLYLINE
  5
117
330
18
100
AcDbEntity
  8
0
100
AcDbPolyline
 90
        4
 70
     1
 43
0.0
 10
378.479004
 20
-59.816804
 10
309.104004
 20
-59.816804
 10
309.104004
 20
-39.429899
 10
378.479004
 20
-39.429899
  0
CIRCLE
  5
118
330
18
100
AcDbEntity
  8
0
 62
     4
100
AcDbCircle
 10
535.256279
 20
-25.854023
 30
0.0
 40
1.5
  0
CIRCLE
  5
119
330
18
100
AcDbEntity
  8
0
 62
     4
100
AcDbCircle
 10
548.181708
 20
-18.391523
 30
0.0
 40
1.5
  0
CIRCLE
  5
11A
330
18
100
AcDbEntity
  8
0
 62
     4
100
AcDbCircle
 10
548.181708
 20
-3.466523
 30
0.0
 40
1.5
  0
CIRCLE
  5
11B
330
18
100
AcDbEntity
  8
0
 62
     4
100
AcDbCircle
 10
535.256279
 20
3.995977
 30
0.0
 40
1.5
  0
CIRCLE
  5
11C
330
18
100
AcDbEntity
  8
0
 62
     4
100
AcDbCircle
 10
522.33085
 20
-3.466523
 30
0.0
 40
1.5
  0
CIRCLE
  5
11D
330
18
100
AcDbEntity
  8
0
 62
     4
100
AcDbCircle
 10
522.33085
 20
-18.391523
 30
0.0
 40
1.5
  0
CIRCLE
  5
11E
330
18
100
AcDbEntity
  8
0
 62
     4
100
AcDbCircle
 10
535.256279
 20
-25.854023
 30
0.0
 40
1.5
  0
CIRCLE
  5
11F
330
18
100
AcDbEntity
  8
0
100
AcDbCircle
 10
535.256279
 20
-10.928034
 30
0.0
 40
1.5
  0
LWPOLYLINE
  5
120
330
18
100
AcDbEntity
  8
0
 62
     4
100
AcDbPolyline
 90
        6
 70
     1
 43
0.0
 10
544.256298
 20
-33.403189
 42
1.00001
 10
544.255351
 20
11.549205
 10
534.18386
 20
11.545826
 10
515.256279
 20
0.617983
 10
515.256279
 20
-22.476028
 10
534.184697
 20
-33.404355
  0
LWPOLYLINE
  5
121
330
18
100
AcDbEntity
  8
0
 62
     4
100
AcDbPolyline
 90
        8
 70
     0
 43
0.0
 10
533.243041
 20
-14.47078
 42
-0.132289
 10
531.737236
 20
-12.980989
 10
522.419245
 20
-12.980989
 42
0.038734
 10
522.88934
 20
-14.936369
 42
-0.475029
 10
525.602346
 20
-19.635433
 42
0.147198
 10
532.009707
 20
-23.517408
 42
-0.104845
 10
533.237236
 20
-22.400985
 10
533.243041
 20
-14.47078
  0
LWPOLYLINE
  5
122
330
18
100
AcDbEntity
  8
0
 62
     4
100
AcDbPolyline
 90
        8
 70
     0
 43
0.0
 10
537.269517
 20
-14.47078
 42
0.132289
 10
538.775322
 20
-12.980989
 10
548.093313
 20
-12.980989
 42
-0.038734
 10
547.623218
 20
-14.936369
 42
0.475029
 10
544.910212
 20
-19.635433
 42
-0.147198
 10
538.502851
 20
-23.517408
 42
0.104845
 10
537.275322
 20
-22.400985
 10
537.269517
 20
-14.47078
  0
LWPOLYLINE
  5
123
330
18
100
AcDbEntity
  8
0
 62
     4
100
AcDbPolyline
 90
        8
 70
     0
 43
0.0
 10
533.243041
 20
-7.385289
 42
0.132289
 10
531.737236
 20
-8.87508
 10
522.419245
 20
-8.87508
 42
-0.038734
 10
522.88934
 20
-6.9197
 42
0.475029
 10
525.602346
 20
-2.220636
 42
-0.147198
 10
532.009707
 20
1.661339
 42
0.104845
 10
533.237236
 20
0.544917
 10
533.243041
 20
-7.385289
  0
LWPOLYLINE
  5
124
330
18
100
AcDbEntity
  8
0
 62
     4
100
AcDbPolyline
 90
        8
 70
     0
 43
0.0
 10
537.269517
 20
-7.385289
 42
-0.132289
 10
538.775322
 20
-8.87508
 10
548.093313
 20
-8.87508
 42
0.038734
 10
547.623218
 20
-6.9197
 42
-0.475029
 10
544.910212
 20
-2.220636
 42
0.147198
 10
538.502851
 20
1.661339
 42
-0.104845
 10
537.275322
 20
0.544917
 10
537.269517
 20
-7.385289
  0
MTEXT
  5
125
330
18
100
AcDbEntity
  8
0
100
AcDbMText
 10
513.894357
 20
-44.75728
 30
0.0
 40
2.5
 41
51.785714
 46
5.955837
 71
     1
 72
     1
  1
\pxqc;Standalon_Valve_Cover_Plate\PTransparent Acrylic \P2mmX1PCS
 73
     1
 44
1.0
1001
ACAD
1000
ACAD_MTEXT_DEFINED_HEIGHT_BEGIN
1070
    46
1040
5.955837
1000
ACAD_MTEXT_DEFINED_HEIGHT_END
  0
LWPOLYLINE
  5
126
330
18
100
AcDbEntity
  8
0
100
AcDbPolyline
 90
        4
 70
     1
 43
0.0
 10
574.191976
 20
-59.816804
 10
504.816976
 20
-59.816804
 10
504.816976
 20
-39.429899
 10
574.191976
 20
-39.429899
  0
MTEXT
  5
127
330
18
100
AcDbEntity
  8
0
 62
     1
100
AcDbMText
 10
371.394763
 20
-99.719609
 30
0.0
 40
10.0
 41
144.23474
 46
20.049023
 71
     1
 72
     1
  1
Standalon_Valve
 73
     1
 44
1.0
1001
ACAD
1000
ACAD_MTEXT_DEFINED_HEIGHT_BEGIN
1070
    46
1040
20.049023
1000
ACAD_MTEXT_DEFINED_HEIGHT_END
  0
LWPOLYLINE
  5
128
330
18
100
AcDbEntity
  8
0
100
AcDbPolyline
 90
        4
 70
     1
 43
0.0
 10
536.156668
 20
-122.275413
 10
351.49521
 20
-122.275413
 10
351.49521
 20
-89.328984
 10
536.156668
 20
-89.328984
  0
LINE
  5
129
330
18
100
AcDbEntity
  8
0
100
AcDbLine
 10
99.212224
 20
36.451026
 30
0.0
 11
753.497938
 21
36.451026
 31
0.0
  0
VIEWPORT
  5
130
330
22
100
AcDbEntity
 67
     1
  8
0
 48
100.0
100
AcDbViewport
 10
0.0
 20
0.0
 30
0.0
 40
466.965848
 41
238.196088
 68
     1
 69
     1
 12
128.5
 22
97.5
 13
0.0
 23
0.0
 14
10.0
 24
10.0
 15
10.0
 25
10.0
 16
0.0
 26
0.0
 36
1.0
 17
0.0
 27
0.0
 37
0.0
 42
50.0
 43
0.0
 44
0.0
 45
238.196088
 50
0.0
 51
0.0
 72
   100
 90
   557168
  1

281
     0
 71
     1
 74
     0
110
0.0
120
0.0
130
0.0
111
1.0
121
0.0
131
0.0
112
0.0
122
1.0
132
0.0
 79
     0
146
0.0
170
     0
 61
     5
348
12F
292
     1
282
     1
141
0.0
142
0.0
 63
   256
  0
ENDSEC
  0
SECTION
  2
OBJECTS
  0
DICTIONARY
  5
7
330
0
100
AcDbDictionary
281
     1
  3
ACAD_COLOR
350
2B
  3
ACAD_DETAILVIEWSTYLE
350
154
  3
ACAD_GROUP
350
29
  3
ACAD_IMAGE_DICT
350
14C
  3
ACAD_LAYOUT
350
1E
  3
ACAD_MATERIAL
350
9
  3
ACAD_MLEADERSTYLE
350
152
  3
ACAD_MLINESTYLE
350
16
  3
ACAD_PLOTSETTINGS
350
2A
  3
ACAD_PLOTSTYLENAME
350
6
  3
ACAD_SCALELIST
350
30
  3
ACAD_SECTIONVIEWSTYLE
350
155
  3
ACAD_TABLESTYLE
350
151
  3
ACAD_VISUALSTYLE
350
2C
  3
AcDbVariableDictionary
350
14F
  3
MCS_STREAM_DICT
350
14A
  0
SUN
  5
2E
330
2D
100
AcDbSun
 90
        1
290
     0
 63
     7
421
 16777215
 40
1.0
291
     1
 91
  2455826
 92
 54000000
292
     0
 70
     2
 71
   256
280
     1
  0
DICTIONARY
  5
3
330
2
100
AcDbDictionary
280
     1
281
     1
  3
ACAD_LAYERSTATES
360
4
  0
DICTIONARY
  5
19
330
18
100
AcDbDictionary
280
     1
281
     1
  3
ACAD_SORTENTS
360
1A
  0
DICTIONARY
  5
2B
102
{ACAD_REACTORS
330
7
102
}
330
7
100
AcDbDictionary
281
     1
  0
DICTIONARY
  5
154
102
{ACAD_REACTORS
330
7
102
}
330
7
100
AcDbDictionary
281
     1
  0
DICTIONARY
  5
29
102
{ACAD_REACTORS
330
7
102
}
330
7
100
AcDbDictionary
281
     1
  0
DICTIONARY
  5
14C
102
{ACAD_REACTORS
330
7
102
}
330
7
100
AcDbDictionary
281
     1
  0
DICTIONARY
  5
1E
102
{ACAD_REACTORS
330
7
102
}
330
7
100
AcDbDictionary
281
     1
  3
A0
350
148
  3
A1
350
143
  3
A2
350
13E
  3
A3
350
139
  3
A4
350
134
  3
Layout1
350
12D
  3
Layout2
350
25
  3
Model
350
1D
  0
DICTIONARY
  5
9
102
{ACAD_REACTORS
330
7
102
}
330
7
100
AcDbDictionary
281
     1
  3
ByBlock
350
53
  3
ByLayer
350
12
  3
Global
350
8
  0
DICTIONARY
  5
152
102
{ACAD_REACTORS
330
7
102
}
330
7
100
AcDbDictionary
281
     1
  0
DICTIONARY
  5
16
102
{ACAD_REACTORS
330
7
102
}
330
7
100
AcDbDictionary
281
     1
  3
Standard
350
15
  0
DICTIONARY
  5
2A
102
{ACAD_REACTORS
330
7
102
}
330
7
100
AcDbDictionary
281
     1
  0
ACDBDICTIONARYWDFLT
  5
6
102
{ACAD_REACTORS
330
7
102
}
330
7
100
AcDbDictionary
281
     1
  3
Normal
350
5
100
AcDbDictionaryWithDefault
340
5
  0
DICTIONARY
  5
30
102
{ACAD_REACTORS
330
7
102
}
330
7
100
AcDbDictionary
281
     1
  3
*A1
350
52
  0
DICTIONARY
  5
155
102
{ACAD_REACTORS
330
7
102
}
330
7
100
AcDbDictionary
281
     1
  0
DICTIONARY
  5
151
102
{ACAD_REACTORS
330
7
102
}
330
7
100
AcDbDictionary
281
     1
  0
DICTIONARY
  5
2C
102
{ACAD_REACTORS
330
7
102
}
330
7
100
AcDbDictionary
281
     1
  3
2dWireframe
350
12F
  0
DICTIONARY
  5
14F
102
{ACAD_REACTORS
330
7
102
}
330
7
100
AcDbDictionary
281
     1
  3
CANNOSCALE
350
150
  3
XCLIPFRAME
350
153
  0
DICTIONARY
  5
14A
102
{ACAD_REACTORS
330
7
102
}
330
7
100
AcDbDictionary
281
     1
  3
MC_VERSION_DATA
350
14D
  3
MCS_DOCUMENT_ID
350
14B
  0
DICTIONARY
  5
4
102
{ACAD_REACTORS
330
3
102
}
330
3
100
AcDbDictionary
281
     1
  0
SORTENTSTABLE
  5
1A
102
{ACAD_REACTORS
330
19
102
}
330
19
100
AcDbSortentsTable
330
18
  0
LAYOUT
  5
148
102
{ACAD_REACTORS
330
1E
330
1E
102
}
330
1E
100
AcDbPlotSettings
  1

  2
none_device
  4
ISO_A0_(1189.00_x_841.00_MM)
  6

 40
7.5
 41
20.0
 42
7.5
 43
20.0
 44
1189.0
 45
841.0
 46
0.0
 47
0.0
 48
0.0
 49
0.0
140
0.0
141
0.0
142
1.0
143
1.0
 70
   688
 72
     1
 73
     0
 74
     5
  7

 75
    16
 76
     0
 77
     2
 78
   300
147
1.0
148
0.0
149
0.0
100
AcDbLayout
  1
A0
 70
     0
 71
     7
 10
0.0
 20
0.0
 11
0.0
 21
0.0
 12
0.0
 22
0.0
 32
0.0
 14
0.0
 24
0.0
 34
0.0
 15
0.0
 25
0.0
 35
0.0
146
0.0
 13
0.0
 23
0.0
 33
0.0
 16
1.0
 26
0.0
 36
0.0
 17
0.0
 27
1.0
 37
0.0
 76
     0
330
145
331
149
  0
LAYOUT
  5
143
102
{ACAD_REACTORS
330
1E
330
1E
102
}
330
1E
100
AcDbPlotSettings
  1

  2
none_device
  4
ISO_A1_(841.00_x_594.00_MM)
  6

 40
7.5
 41
20.0
 42
7.5
 43
20.0
 44
841.0
 45
594.0
 46
0.0
 47
0.0
 48
0.0
 49
0.0
140
0.0
141
0.0
142
1.0
143
1.0
 70
   688
 72
     1
 73
     0
 74
     5
  7

 75
    16
 76
     0
 77
     2
 78
   300
147
1.0
148
0.0
149
0.0
100
AcDbLayout
  1
A1
 70
     1
 71
     6
 10
-20.0
 20
-7.5
 11
277.0
 21
202.5
 12
0.0
 22
0.0
 32
0.0
 14
0.0
 24
0.0
 34
0.0
 15
0.0
 25
0.0
 35
0.0
146
0.0
 13
0.0
 23
0.0
 33
0.0
 16
1.0
 26
0.0
 36
0.0
 17
0.0
 27
1.0
 37
0.0
 76
     0
330
140
331
144
  0
LAYOUT
  5
13E
102
{ACAD_REACTORS
330
1E
330
1E
102
}
330
1E
100
AcDbPlotSettings
  1

  2
none_device
  4
ISO_A2_(594.00_x_420.00_MM)
  6

 40
7.5
 41
20.0
 42
7.5
 43
20.0
 44
594.0
 45
420.0
 46
0.0
 47
0.0
 48
0.0
 49
0.0
140
0.0
141
0.0
142
1.0
143
1.0
 70
   688
 72
     1
 73
     0
 74
     5
  7

 75
    16
 76
     0
 77
     2
 78
   300
147
1.0
148
0.0
149
0.0
100
AcDbLayout
  1
A2
 70
     1
 71
     5
 10
0.0
 20
0.0
 11
0.0
 21
0.0
 12
0.0
 22
0.0
 32
0.0
 14
0.0
 24
0.0
 34
0.0
 15
0.0
 25
0.0
 35
0.0
146
0.0
 13
0.0
 23
0.0
 33
0.0
 16
1.0
 26
0.0
 36
0.0
 17
0.0
 27
1.0
 37
0.0
 76
     0
330
13B
331
13F
  0
LAYOUT
  5
139
102
{ACAD_REACTORS
330
1E
330
1E
102
}
330
1E
100
AcDbPlotSettings
  1

  2
none_device
  4
ISO_A3_(420.00_x_297.00_MM)
  6

 40
7.5
 41
20.0
 42
7.5
 43
20.0
 44
420.0
 45
297.0
 46
0.0
 47
0.0
 48
0.0
 49
0.0
140
0.0
141
0.0
142
1.0
143
1.0
 70
   688
 72
     1
 73
     0
 74
     5
  7

 75
    16
 76
     0
 77
     2
 78
   300
147
1.0
148
0.0
149
0.0
100
AcDbLayout
  1
A3
 70
     1
 71
     4
 10
0.0
 20
0.0
 11
0.0
 21
0.0
 12
0.0
 22
0.0
 32
0.0
 14
0.0
 24
0.0
 34
0.0
 15
0.0
 25
0.0
 35
0.0
146
0.0
 13
0.0
 23
0.0
 33
0.0
 16
1.0
 26
0.0
 36
0.0
 17
0.0
 27
1.0
 37
0.0
 76
     0
330
136
331
13A
  0
LAYOUT
  5
134
102
{ACAD_REACTORS
330
1E
330
1E
102
}
330
1E
100
AcDbPlotSettings
  1

  2
none_device
  4
ISO_A4_(210.00_x_297.00_MM)
  6

 40
7.5
 41
20.0
 42
7.5
 43
20.0
 44
210.0
 45
297.0
 46
0.0
 47
0.0
 48
0.0
 49
0.0
140
0.0
141
0.0
142
1.0
143
1.0
 70
   688
 72
     1
 73
     0
 74
     5
  7

 75
    16
 76
     0
 77
     2
 78
   300
147
1.0
148
0.0
149
0.0
100
AcDbLayout
  1
A4
 70
     1
 71
     3
 10
0.0
 20
0.0
 11
0.0
 21
0.0
 12
0.0
 22
0.0
 32
0.0
 14
0.0
 24
0.0
 34
0.0
 15
0.0
 25
0.0
 35
0.0
146
0.0
 13
0.0
 23
0.0
 33
0.0
 16
1.0
 26
0.0
 36
0.0
 17
0.0
 27
1.0
 37
0.0
 76
     0
330
131
331
135
  0
LAYOUT
  5
12D
102
{ACAD_REACTORS
330
1E
330
1E
102
}
330
1E
100
AcDbPlotSettings
  1

  2
none_device
  4
ISO_A4_(210.00_x_297.00_MM)
  6

 40
7.5
 41
20.0
 42
7.5
 43
20.0
 44
210.0
 45
297.0
 46
0.0
 47
0.0
 48
0.0
 49
0.0
140
0.0
141
0.0
142
1.0
143
1.0
 70
   688
 72
     1
 73
     1
 74
     5
  7

 75
    16
 76
     0
 77
     2
 78
   300
147
1.0
148
0.0
149
0.0
100
AcDbLayout
  1
Layout1
 70
     0
 71
     2
 10
0.0
 20
0.0
 11
12.0
 21
9.0
 12
0.0
 22
0.0
 32
0.0
 14
0.0
 24
0.0
 34
0.0
 15
0.0
 25
0.0
 35
0.0
146
0.0
 13
0.0
 23
0.0
 33
0.0
 16
1.0
 26
0.0
 36
0.0
 17
0.0
 27
1.0
 37
0.0
 76
     0
330
12A
331
12E
  0
LAYOUT
  5
25
102
{ACAD_REACTORS
330
1E
330
1E
102
}
330
1E
100
AcDbPlotSettings
  1

  2
none_device
  4
ISO_A4_(210.00_x_297.00_MM)
  6

 40
7.5
 41
20.0
 42
7.5
 43
20.0
 44
210.0
 45
297.0
 46
0.0
 47
0.0
 48
0.0
 49
0.0
140
0.0
141
0.0
142
1.0
143
1.0
 70
   688
 72
     1
 73
     1
 74
     5
  7

 75
    16
 76
     0
 77
     2
 78
   300
147
1.0
148
0.0
149
0.0
100
AcDbLayout
  1
Layout2
 70
     0
 71
     1
 10
-20.0
 20
-7.5
 11
277.0
 21
202.5
 12
0.0
 22
0.0
 32
0.0
 14
0.0
 24
0.0
 34
0.0
 15
0.0
 25
0.0
 35
0.0
146
0.0
 13
0.0
 23
0.0
 33
0.0
 16
1.0
 26
0.0
 36
0.0
 17
0.0
 27
1.0
 37
0.0
 76
     0
330
22
331
130
  0
LAYOUT
  5
1D
102
{ACAD_REACTORS
330
1E
330
1E
102
}
102
{ACAD_XDICTIONARY
360
1F
102
}
330
1E
100
AcDbPlotSettings
  1

  2
none_device
  4
ISO_A4_(210.00_x_297.00_MM)
  6

 40
7.5
 41
20.0
 42
7.5
 43
20.0
 44
210.0
 45
297.0
 46
0.0
 47
0.0
 48
0.0
 49
0.0
140
0.0
141
0.0
142
1.0
143
3.249677
 70
 11952
 72
     1
 73
     0
 74
     0
  7

 75
     0
 76
     0
 77
     2
 78
   300
147
0.307723
148
0.0
149
0.0
100
AcDbLayout
  1
Model
 70
     1
 71
     0
 10
0.0
 20
0.0
 11
420.0
 21
297.0
 12
0.0
 22
0.0
 32
0.0
 14
62.612588
 24
-148.01326
 34
0.0
 15
787.783652
 25
328.596383
 35
0.0
146
0.0
 13
0.0
 23
0.0
 33
0.0
 16
1.0
 26
0.0
 36
0.0
 17
0.0
 27
1.0
 37
0.0
 76
     0
330
18
331
2D
1001
ACAD_PSEXT
1000
None
1000
None
1000
Not applicable
1000
The layout will not be plotted unless a new plotter configuration name is selected.
1070
     0
  0
MATERIAL
  5
53
102
{ACAD_REACTORS
330
9
102
}
330
9
100
AcDbMaterial
  1
ByBlock
 72
     1
 73
     2
 78
     2
172
     2
176
     2
270
     2
274
     2
 94
       63
  0
MATERIAL
  5
12
102
{ACAD_REACTORS
330
9
102
}
330
9
100
AcDbMaterial
  1
ByLayer
 72
     1
 73
     2
 78
     2
172
     2
176
     2
270
     2
274
     2
 94
       63
  0
MATERIAL
  5
8
102
{ACAD_REACTORS
330
9
102
}
330
9
100
AcDbMaterial
  1
Global
 72
     1
 73
     2
 43
0.0008
 43
0.0
 43
0.0
 43
0.0
 43
0.0
 43
0.0008
 43
0.0
 43
0.0
 43
0.0
 43
0.0
 43
1.0
 43
0.0
 43
0.0
 43
0.0
 43
0.0
 43
1.0
 78
     2
172
     2
 49
0.0008
 49
0.0
 49
0.0
 49
0.0
 49
0.0
 49
0.0008
 49
0.0
 49
0.0
 49
0.0
 49
0.0
 49
1.0
 49
0.0
 49
0.0
 49
0.0
 49
0.0
 49
1.0
176
     2
142
0.0008
142
0.0
142
0.0
142
0.0
142
0.0
142
0.0008
142
0.0
142
0.0
142
0.0
142
0.0
142
1.0
142
0.0
142
0.0
142
0.0
142
0.0
142
1.0
270
     2
144
0.0008
144
0.0
144
0.0
144
0.0
144
0.0
144
0.0008
144
0.0
144
0.0
144
0.0
144
0.0
144
1.0
144
0.0
144
0.0
144
0.0
144
0.0
144
1.0
274
     2
 94
       63
1001
ACAD
1070
    -1
1070
     3
1070
     0
1000

1071
        0
1070
     0
  0
MLINESTYLE
  5
15
102
{ACAD_REACTORS
330
16
102
}
330
16
100
AcDbMlineStyle
  2
STANDARD
 70
     0
  3

 62
   256
 51
90.0
 52
90.0
 71
     2
 49
0.5
 62
   256
  6
BYLAYER
 49
-0.5
 62
   256
  6
BYLAYER
  0
ACDBPLACEHOLDER
  5
5
102
{ACAD_REACTORS
330
6
102
}
330
6
  0
SCALE
  5
52
102
{ACAD_REACTORS
330
30
102
}
330
30
100
AcDbScale
 70
     0
300
1:1
140
1.0
141
1.0
290
     1
  0
VISUALSTYLE
  5
12F
102
{ACAD_REACTORS
330
2C
102
}
330
2C
100
AcDbVisualStyle
  2
2dWireframe
 70
     4
177
     3
291
     0
 70
    58
 90
        0
176
     1
 90
        2
176
     1
 90
        1
176
     1
 90
        0
176
     1
 40
-0.6
176
     1
 40
-30.0
176
     1
 62
     7
420
 16777215
176
     1
 90
        1
176
     1
 90
        4
176
     1
 62
     7
176
     1
 62
   257
176
     1
 90
        1
176
     1
 90
        1
176
     1
 40
1.0
176
     1
 90
        0
176
     1
 62
   257
176
     1
 40
1.0
176
     1
 90
        1
176
     1
 90
        6
176
     1
 90
        2
176
     1
 62
     7
176
     1
 90
        5
176
     1
 90
        0
176
     1
 90
        0
176
     1
290
     0
176
     1
 90
        1
176
     1
 40
0.0
176
     1
 90
        0
176
     1
290
     1
176
     1
290
     1
176
     1
290
     0
176
     1
290
     0
176
     1
290
     0
176
     1
290
     0
176
     1
290
     0
176
     1
290
     0
176
     1
290
     0
176
     1
 90
       50
176
     1
 40
0.0
176
     1
 40
1.0
176
     1
 90
        0
176
     1
 62
    18
420
        0
176
     1
 90
       50
176
     1
 90
        3
176
     1
 62
     5
420
      255
176
     1
290
     0
176
     1
 90
       50
176
     1
 90
       50
176
     1
 90
       50
176
     1
290
     0
176
     1
 90
       50
176
     1
 62
   256
176
     0
 40
1.0
176
     0
 90
        2
176
     1
  1
strokes_ogs.tif
176
     1
290
     0
176
     1
 40
1.0
176
     1
 40
1.0
176
     1
  0
DICTIONARYVAR
  5
150
102
{ACAD_REACTORS
330
14F
102
}
330
14F
100
DictionaryVariables
280
     0
  1
1:1
  0
DICTIONARYVAR
  5
153
102
{ACAD_REACTORS
330
14F
102
}
330
14F
100
DictionaryVariables
280
     0
  1
0
  0
XRECORD
  5
14D
102
{ACAD_REACTORS
330
14A
102
}
330
14A
100
AcDbXrecord
280
     1
300
MC_VERSION_DATA
 90
       95
310
0600000002000000570000001C000000E404000000000000000000007801936764E5D8CF7A8393818115C460606066E0646662626666706006F214793899F8DE3171E725E6E53B3BBA2878E6951050AF75FEFFFFFF520032DE0F3057000000
  0
XRECORD
  5
14B
102
{ACAD_REACTORS
330
14A
102
}
330
14A
100
AcDbXrecord
280
     1
300
MCS_DOCUMENT_ID
 90
       60
310
0600000002000000150000001C000000E404000000000000000000007801E3DD55703E6779E12DDF56CBD0ED413C76FAFF81000070450B4315000000
  0
DICTIONARY
  5
1F
330
1D
100
AcDbDictionary
280
     1
281
     1
  3
CSD_PLOT_CONFIG
360
20
  0
LAYOUTPRINTCONFIG
  5
20
102
{ACAD_REACTORS
330
1F
102
}
330
1F
100
AcDbEntity
  8
0
160
                 8
310
0800000000000000
100
CAcLayoutPrintConfig
 93
        0
  0
ENDSEC
  0
EOF
